<svg width="168" height="56" viewBox="0 0 168 56" fill="none" xmlns="http://www.w3.org/2000/svg">
<path d="M154.622 0.000181999H13.386C12.8712 0.000181999 12.3626 0.000182 11.8491 0.00298199C11.4193 0.00578198 10.9929 0.013916 10.559 0.0207619C9.61624 0.0318244 8.67574 0.114528 7.74562 0.268155C6.81682 0.425126 5.91711 0.721062 5.07692 1.14595C4.23776 1.57444 3.471 2.13121 2.80445 2.79607C2.1344 3.45906 1.57586 4.22539 1.15031 5.06559C0.723586 5.90412 0.427694 6.80267 0.272854 7.73023C0.116542 8.65661 0.0324285 9.59368 0.0212695 10.533C0.00824107 10.9623 0.00686522 11.3929 0 11.8222V44.1821C0.00686522 44.6168 0.00824107 45.0379 0.0212695 45.4727C0.0324319 46.412 0.116545 47.349 0.272854 48.2754C0.427266 49.2035 0.723176 50.1026 1.15031 50.9414C1.57567 51.7789 2.13428 52.5421 2.80445 53.2014C3.46847 53.8692 4.23573 54.4264 5.07692 54.8516C5.9171 55.2776 6.81671 55.5753 7.74562 55.7347C8.67589 55.8871 9.6163 55.9698 10.559 55.9822C10.9929 55.9917 11.4193 55.9972 11.8491 55.9972C12.3625 56 12.8712 56 13.386 56H154.622C155.126 56 155.639 56 156.143 55.9972C156.571 55.9972 157.01 55.9917 157.438 55.9822C158.379 55.9705 159.317 55.8877 160.246 55.7347C161.177 55.5742 162.08 55.2766 162.925 54.8516C163.765 54.4261 164.531 53.869 165.195 53.2014C165.863 52.5395 166.423 51.7769 166.854 50.9414C167.278 50.1019 167.571 49.2029 167.723 48.2754C167.88 47.3489 167.967 46.4121 167.984 45.4727C167.989 45.0379 167.989 44.6168 167.989 44.1821C168 43.6735 168 43.1676 168 42.6508V13.3507C168 12.838 168 12.3294 167.989 11.8222C167.989 11.3929 167.989 10.9623 167.984 10.533C167.967 9.59354 167.88 8.65668 167.723 7.73017C167.57 6.80315 167.277 5.90467 166.854 5.06553C165.987 3.38145 164.613 2.01061 162.925 1.14583C162.08 0.721974 161.177 0.426117 160.246 0.268029C159.317 0.113726 158.379 0.0309928 157.438 0.0205659C157.01 0.013734 156.571 0.00552998 156.143 0.00279999C155.639 0 155.126 0 154.622 0V0.000181999Z" fill="black"/>
<path d="M11.5951 54.9972C11.1687 54.9972 10.7527 54.9918 10.3297 54.9824C9.45347 54.9711 8.57926 54.8956 7.71428 54.7564C6.90772 54.6189 6.12638 54.363 5.39604 53.9973C4.67239 53.6346 4.01237 53.159 3.44125 52.5887C2.86186 52.0252 2.3795 51.3716 2.01327 50.6538C1.64301 49.9314 1.38676 49.157 1.25346 48.3577C1.10951 47.4988 1.03163 46.6303 1.02049 45.7598C1.01161 45.4676 1 44.4946 1 44.4946V12.4877C1 12.4877 1.01237 11.5297 1.02056 11.2483C1.03123 10.3791 1.10866 9.51196 1.25218 8.65442C1.38572 7.8529 1.64217 7.0763 2.01263 6.3515C2.37751 5.63422 2.8572 4.98012 3.43309 4.41457C4.00834 3.84364 4.67047 3.3656 5.39535 2.99789C6.12402 2.63333 6.90388 2.37927 7.7088 2.24423C8.57663 2.10369 9.45387 2.02771 10.3332 2.01692L11.5958 2H155.397L156.675 2.0176C157.546 2.02785 158.416 2.10315 159.275 2.24287C160.089 2.37961 160.877 2.63543 161.614 3.00195C163.066 3.743 164.247 4.91542 164.993 6.35488C165.357 7.07468 165.61 7.84495 165.742 8.63953C165.887 9.50412 165.968 10.378 165.985 11.2544C165.989 11.6467 165.989 12.0682 165.989 12.4877C166 13.0073 166 13.5018 166 14.0004V42.9981C166 43.5015 166 43.9926 165.989 44.4878C165.989 44.9384 165.989 45.3512 165.983 45.776C165.967 46.6367 165.887 47.495 165.744 48.3441C165.614 49.1492 165.359 49.9296 164.989 50.658C164.62 51.368 164.14 52.0159 163.568 52.5779C162.996 53.1512 162.335 53.6296 161.609 53.9946C160.875 54.3632 160.088 54.62 159.275 54.7564C158.411 54.8963 157.536 54.9718 156.66 54.9824C156.25 54.9918 155.821 54.9972 155.404 54.9972L153.887 55L11.5951 54.9972Z" fill="white"/>
<path fill-rule="evenodd" clip-rule="evenodd" d="M104.843 40.7817C102.535 40.7817 100.845 39.6429 100.651 37.9084L97.9642 37.9083C98.1338 41.0718 100.76 43.0731 104.649 43.0731C108.805 43.0731 111.417 41.0237 111.417 37.7515C111.417 35.1933 109.924 33.7518 106.326 32.9032L104.394 32.43C102.133 31.873 101.209 31.1454 101.209 29.9089C101.209 28.3574 102.656 27.2915 104.77 27.2915C106.884 27.2915 108.331 28.345 108.49 30.0905H111.139C111.053 27.0728 108.513 25 104.806 25C101.063 25 98.4263 27.0728 98.4263 30.0905C98.4263 32.5277 99.9212 34.0297 103.141 34.8054L105.414 35.3515C107.687 35.9085 108.647 36.7214 108.647 38.0789C108.647 39.6428 107.055 40.7817 104.843 40.7817ZM59.1211 38.0542H52.4366L50.8313 42.7816H48L54.3315 25.2916H57.2731L63.6046 42.7816H60.725L59.1211 38.0542ZM53.1289 35.8728H58.4275L55.8154 28.2007H55.7423L53.1289 35.8728ZM71.9426 42.915C75.1518 42.915 77.2784 40.3691 77.2784 36.4065C77.2784 32.4549 75.1394 29.8966 71.8943 29.8966C70.2245 29.8429 68.6604 30.709 67.8232 32.1509H67.7749V30.03H65.2346V47H67.8591V40.684H67.9198C68.7213 42.135 70.2838 43.0015 71.9426 42.915ZM74.5808 36.4065C74.5808 33.8248 73.2431 32.1275 71.202 32.1275C69.1968 32.1275 67.8481 33.8606 67.8481 36.4065C67.8481 38.9758 69.1968 40.6964 71.202 40.6964C73.2431 40.6964 74.5808 39.0115 74.5808 36.4065H74.5808ZM86.015 42.915C89.2242 42.915 91.3514 40.3691 91.3514 36.4065C91.3514 32.4549 89.2118 29.8966 85.9667 29.8966C84.2969 29.8429 82.7327 30.709 81.8956 32.1509H81.8473V30.03H79.307V47H81.9314V40.684H81.9922C82.7937 42.135 84.3562 43.0015 86.015 42.915ZM88.6532 36.4065C88.6532 33.8248 87.3155 32.1275 85.2744 32.1275C83.2692 32.1275 81.9204 33.8606 81.9204 36.4065C81.9204 38.9758 83.2692 40.6964 85.2744 40.6964C87.3155 40.6964 88.6532 39.0115 88.6532 36.4065ZM117.084 27.0123V30.03H119.515V32.1028H117.084V39.1326C117.084 40.2247 117.571 40.7336 118.64 40.7336C118.928 40.7286 119.217 40.7083 119.503 40.673V42.7334C119.023 42.8229 118.534 42.8635 118.045 42.8544C115.457 42.8544 114.447 41.8848 114.447 39.4117V32.1028H112.588V30.03H114.447V27.0123H117.084ZM126.986 29.8732C123.292 29.8732 120.922 32.3944 120.922 36.4065C120.922 40.4296 123.268 42.9398 126.986 42.9398C130.706 42.9398 133.051 40.4296 133.051 36.4065C133.051 32.3943 130.693 29.8732 126.986 29.8732ZM130.377 36.4065C130.377 33.6543 129.113 32.0299 126.986 32.0299C124.86 32.0299 123.595 33.6666 123.595 36.4065C123.595 39.1697 124.86 40.7817 126.986 40.7817C129.113 40.7817 130.377 39.1697 130.377 36.4065ZM137.718 30.03H135.215L135.215 42.7816H137.84V35.2181C137.752 34.4529 138.005 33.6879 138.53 33.1238C139.056 32.5598 139.803 32.2531 140.574 32.2843C140.973 32.2727 141.372 32.3261 141.754 32.4425V29.9942C141.458 29.9283 141.157 29.8955 140.854 29.8966C139.412 29.8416 138.128 30.8032 137.779 32.2004H137.718V30.03ZM153.854 39.0363C153.501 41.3511 151.24 42.9397 148.348 42.9397C144.629 42.9397 142.32 40.4543 142.32 36.467C142.32 32.4673 144.641 29.8732 148.238 29.8732C151.775 29.8732 154 32.2967 154 36.163V37.0598H144.97V37.218C144.885 38.1673 145.214 39.107 145.872 39.7981C146.53 40.4891 147.454 40.8649 148.409 40.8298C149.683 40.9489 150.883 40.2195 151.362 39.0363L153.854 39.0363ZM151.374 35.2305H144.982C144.98 34.3696 145.322 33.5434 145.934 32.9357C146.545 32.3279 147.375 31.989 148.238 31.9941C149.095 31.9758 149.92 32.3146 150.515 32.9289C151.11 33.5433 151.422 34.3774 151.374 35.2305Z" fill="black"/>
<path fill-rule="evenodd" clip-rule="evenodd" d="M81.8592 11H83.1059V19.8618H81.8592V11ZM54.9774 12.5738C54.2144 11.7609 53.1303 11.336 52.0236 11.4161H49V19.8619H52.0236C54.5169 19.8619 55.9623 18.3109 55.9623 15.6127C56.1018 14.502 55.7404 13.3867 54.9774 12.5738ZM51.8783 18.6675H50.3001V12.6097H51.8783C52.6651 12.5656 53.4302 12.8786 53.9644 13.4631C54.4986 14.0475 54.746 14.8423 54.6389 15.6299C54.7544 16.4209 54.5105 17.2222 53.975 17.8115C53.4395 18.4008 52.6693 18.7152 51.8783 18.6675ZM57.4309 16.6722C57.3226 15.5298 57.8655 14.4241 58.832 13.819C59.7985 13.2139 61.0214 13.2139 61.9879 13.819C62.9544 14.4241 63.4973 15.5298 63.389 16.6722C63.4994 17.8158 62.9569 18.9236 61.9896 19.53C61.0223 20.1365 59.7976 20.1365 58.8303 19.53C57.863 18.9236 57.3205 17.8158 57.4309 16.6722ZM60.412 14.4827C61.4915 14.4827 62.1067 15.2906 62.1067 16.6722H62.1067C62.1067 18.0593 61.4916 18.8665 60.412 18.8666C59.3284 18.8666 58.7187 18.0648 58.7187 16.6722C58.7187 15.2906 59.3283 14.4827 60.412 14.4827ZM71.3089 19.8618H70.0156L68.71 15.1676H68.6114L67.3113 19.8618H66.0303L64.2891 13.4881H65.5536L66.6852 18.3516H66.7784L68.0771 13.4881H69.2731L70.5719 18.3516H70.6705L71.7966 13.4881H73.0433L71.3089 19.8618ZM75.7079 13.4881H74.5078L74.5078 19.8618H75.7545V16.1331C75.7098 15.7089 75.8509 15.2862 76.1408 14.9757C76.4307 14.6653 76.8406 14.4981 77.2629 14.5179C78.1849 14.5179 78.626 15.0273 78.626 16.0515V19.8617H79.8727V15.7357C79.9641 15.1125 79.7696 14.4812 79.3443 14.02C78.9189 13.5588 78.3088 13.3178 77.6862 13.3651C76.8821 13.2991 76.1251 13.7551 75.8011 14.5006H75.7079V13.4881ZM86.2402 13.8189C85.2737 14.424 84.7307 15.5297 84.8389 16.6722C84.7287 17.8159 85.2712 18.9236 86.2386 19.53C87.206 20.1364 88.4306 20.1364 89.398 19.53C90.3654 18.9236 90.9079 17.8159 90.7977 16.6722C90.9059 15.5297 90.3629 14.424 89.3963 13.8189C88.4298 13.2138 87.2068 13.2138 86.2402 13.8189ZM89.5147 16.6722C89.5147 15.2906 88.8995 14.4827 87.82 14.4827C86.7363 14.4827 86.1267 15.2906 86.1267 16.6722C86.1267 18.0648 86.7364 18.8666 87.82 18.8666C88.8995 18.8665 89.5147 18.0593 89.5147 16.6722ZM94.4596 16.1566C92.9568 16.2506 92.1101 16.912 92.1101 18.0593C92.1122 18.6033 92.3423 19.121 92.7435 19.4844C93.1447 19.8478 93.6795 20.0231 94.2158 19.9668C94.9808 20.0025 95.7056 19.6202 96.1132 18.9661H96.2119V19.8618H97.412V15.5069C97.412 14.1606 96.5187 13.3651 94.935 13.3651C93.502 13.3651 92.4814 14.0673 92.354 15.1621H93.5609C93.6993 14.7114 94.1816 14.4536 94.8775 14.4536C95.7296 14.4536 96.1708 14.8338 96.1708 15.5069V16.0571L94.4596 16.1566ZM96.1708 17.5147V16.9818L94.6282 17.0813C93.7582 17.1401 93.3637 17.4386 93.3637 18.0005C93.3637 18.5742 93.8568 18.908 94.535 18.908C94.9365 18.949 95.3373 18.8239 95.6457 18.5612C95.954 18.2986 96.1435 17.9209 96.1708 17.5147ZM101.673 13.3824C100.077 13.3824 99.0505 14.6582 99.0505 16.6722C99.0505 18.691 100.066 19.9669 101.673 19.9668C102.487 19.9971 103.252 19.5688 103.656 18.8548H103.755V19.8618H104.95V11H103.703V14.5006H103.61C103.233 13.7806 102.479 13.3449 101.673 13.3824ZM100.338 16.6722C100.338 18.024 100.97 18.8375 102.026 18.8375C103.077 18.8375 103.726 18.0123 103.726 16.6777C103.726 15.3493 103.07 14.5124 102.026 14.5124C100.977 14.5124 100.338 15.3314 100.338 16.6722H100.338ZM111.509 13.819C110.542 14.4241 109.999 15.5298 110.108 16.6722C109.997 17.8158 110.54 18.9236 111.507 19.53C112.474 20.1365 113.699 20.1365 114.666 19.53C115.634 18.9236 116.176 17.8158 116.066 16.6722C116.174 15.5298 115.631 14.4241 114.665 13.819C113.698 13.2139 112.475 13.2139 111.509 13.819ZM114.783 16.6722C114.783 15.2906 114.168 14.4827 113.089 14.4827C112.005 14.4827 111.395 15.2906 111.395 16.6722C111.395 18.0648 112.005 18.8666 113.089 18.8666C114.168 18.8665 114.783 18.0593 114.783 16.6722ZM118.939 13.4881H117.738V19.8618H118.985V16.1331C118.94 15.7089 119.082 15.2862 119.371 14.9757C119.661 14.6653 120.071 14.4981 120.494 14.5179C121.416 14.5179 121.857 15.0273 121.857 16.0515V19.8617H123.103V15.7357C123.195 15.1125 123 14.4812 122.575 14.02C122.15 13.5588 121.539 13.3178 120.917 13.3651C120.113 13.2991 119.356 13.7551 119.032 14.5006H118.939V13.4881ZM130.148 11.9013V13.5171H131.516V14.5767H130.148V17.854C130.148 18.5217 130.421 18.814 131.041 18.814C131.2 18.8135 131.359 18.8038 131.516 18.785V19.8327C131.293 19.8731 131.066 19.8947 130.838 19.897C129.452 19.897 128.9 19.4049 128.9 18.1761V14.5766H127.897V13.5171H128.9V11.9013H130.148ZM134.455 11H133.219L133.219 19.8617H134.466V16.1393C134.428 15.7019 134.582 15.2697 134.889 14.9582C135.196 14.6466 135.623 14.4875 136.057 14.5234C136.938 14.5234 137.407 15.039 137.407 16.057V19.8618H138.655V15.7467C138.738 15.1267 138.542 14.5019 138.122 14.0424C137.701 13.5829 137.099 13.3366 136.48 13.3706C135.664 13.3038 134.893 13.7604 134.554 14.5124H134.455V11ZM145.925 18.1408C145.575 19.3431 144.422 20.1199 143.187 19.9848C142.345 20.0072 141.536 19.6549 140.974 19.0214C140.412 18.3879 140.154 17.5372 140.269 16.695C140.157 15.8504 140.414 14.9984 140.973 14.3595C141.531 13.7206 142.337 13.3578 143.182 13.3651C144.94 13.3651 146 14.5767 146 16.5782V17.0171H141.539V17.0876C141.5 17.5605 141.66 18.0283 141.98 18.376C142.301 18.7236 142.751 18.9188 143.222 18.9135C143.832 18.9874 144.425 18.6821 144.725 18.1408L145.925 18.1408ZM144.73 16.0868H141.539C141.534 15.6473 141.704 15.2241 142.012 14.9132C142.32 14.6023 142.739 14.4301 143.175 14.4357C143.605 14.4257 144.019 14.5994 144.315 14.9138C144.611 15.2282 144.762 15.6542 144.73 16.0868Z" fill="black"/>
<path fill-rule="evenodd" clip-rule="evenodd" d="M32.5987 11C32.7354 12.8578 32.1712 14.6979 31.026 16.1295C29.915 17.5685 28.2316 18.3974 26.4586 18.3784C26.3458 16.5741 26.9264 14.7971 28.0725 13.4388C29.2331 12.0621 30.8492 11.1914 32.5987 11ZM38.206 21.916C36.1665 23.2218 34.9115 25.5245 34.8806 28.0175C34.8835 30.838 36.5055 33.3835 39 34.4822C38.5203 36.1051 37.7971 37.6389 36.8573 39.0266C35.5952 40.9927 34.272 42.9135 32.1717 42.949C31.1728 42.973 30.4986 42.6738 29.796 42.3622C29.0631 42.037 28.2994 41.6983 27.1044 41.6983C25.837 41.6983 25.0392 42.0479 24.2696 42.3852C23.6047 42.6766 22.9608 42.9588 22.0535 42.998C20.0533 43.0751 18.5247 40.8996 17.2167 38.952C14.6025 34.9746 12.5669 27.7431 15.2959 22.8225C16.5775 20.4243 18.9736 18.9025 21.6077 18.8139C22.7421 18.7896 23.8307 19.2449 24.785 19.6441C25.5149 19.9494 26.1663 20.2219 26.6997 20.2219C27.1686 20.2219 27.8018 19.9602 28.5398 19.6552C29.7022 19.1747 31.1246 18.5869 32.574 18.7453C34.8263 18.8187 36.9135 19.9938 38.206 21.916Z" fill="black"/>
</svg>
