<svg width="161" height="161" viewBox="0 0 161 161" fill="none" xmlns="http://www.w3.org/2000/svg">
<path fill-rule="evenodd" clip-rule="evenodd" d="M134.658 20.8122C121.291 8.83537 103.795 0.981707 84.5299 0V11.7805C100.65 12.7622 115 19.0451 126.402 29.0585L134.658 20.8122ZM0 84.4268H11.9915C12.7778 100.33 19.265 114.86 29.094 126.248L20.8376 134.494C8.64957 121.143 0.982906 103.668 0 84.4268ZM161 84.4268H149.205C148.419 100.33 141.932 114.86 131.906 126.248L140.162 134.494C152.35 121.143 160.017 103.668 161 84.4268ZM76.6667 161C57.4017 160.018 39.906 152.165 26.5385 140.188L34.7949 131.941C46.1966 141.955 60.547 148.238 76.6667 149.22V161ZM84.5299 149.023V160.804C103.795 159.822 121.291 152.165 134.658 139.991L126.402 131.745C115 141.759 100.65 148.238 84.5299 149.023ZM161 76.5732H149.205C148.419 60.4732 141.932 46.1402 131.906 34.7524L140.162 26.5061C152.35 39.8573 160.017 57.3317 161 76.5732ZM76.6667 11.9768V0C57.4017 0.981707 39.906 8.63902 26.5385 20.8122L34.7949 29.0585C46.1966 19.2415 60.547 12.7622 76.6667 11.9768ZM21.0342 26.5061L29.2906 34.7524C19.265 46.1402 12.7778 60.4732 11.7949 76.5732H0C0.982906 57.3317 8.84615 39.8573 21.0342 26.5061Z" fill="#EBB543"/>
<path fill-rule="evenodd" clip-rule="evenodd" d="M81 19C114.782 19 142 46.378 142 80C142 113.782 114.782 141 81 141C47.378 141 20 113.782 20 80C20 46.378 47.378 19 81 19ZM55.7034 92.3281L65.9501 90.727C67.0709 99.6929 73.1549 103.375 81.8005 103.375C87.8845 103.375 95.8898 101.134 95.8898 93.769C95.8898 87.2047 87.084 85.9239 82.1207 84.643C71.5538 82.0814 57.4646 79.5197 57.4646 65.7507C57.4646 55.0236 66.2703 49.5801 75.8766 48.4593V41.895H86.2835V48.6194C96.5302 50.2205 102.294 54.8635 104.055 65.4304L93.9685 66.8714C92.8478 59.5066 87.5643 56.6247 80.6798 56.6247C75.7165 56.6247 67.3911 57.9055 67.3911 64.4698C67.3911 71.0341 77.1575 72.315 81.8005 73.5958C92.6877 76.4777 106.457 78.7192 106.457 92.6483C106.457 104.016 96.5302 110.42 86.2835 111.701V118.265H75.8766V111.541C64.3491 110.1 57.7848 103.856 55.7034 92.3281Z" fill="#EBB543"/>
</svg>
