<svg width="190" height="56" viewBox="0 0 190 56" fill="none" xmlns="http://www.w3.org/2000/svg">
<rect width="190" height="56" rx="5" fill="black"/>
<path fill-rule="evenodd" clip-rule="evenodd" d="M7.03704 0H182.963C186.849 0 190 3.13401 190 7V49C190 52.866 186.849 56 182.963 56H7.03704C3.15059 56 0 52.866 0 49V7C0 3.13401 3.15059 0 7.03704 0ZM188.874 7C188.874 3.75257 186.228 1.12 182.963 1.12H7.03704C3.77242 1.12 1.12593 3.75257 1.12593 7V49C1.12593 52.2474 3.77242 54.88 7.03704 54.88H182.963C186.228 54.88 188.874 52.2474 188.874 49V7Z" fill="#A6A6A6"/>
<path fill-rule="evenodd" clip-rule="evenodd" d="M67.1896 32.284V34.804H73.2696C73.1743 35.9909 72.6783 37.1109 71.8622 37.982C70.6322 39.2283 68.93 39.8995 67.1756 39.83C63.4446 39.83 60.42 36.8214 60.42 33.11C60.42 29.3986 63.4446 26.39 67.1756 26.39C68.8895 26.3622 70.5446 27.0117 71.7778 28.196L73.5652 26.418C71.8832 24.7238 69.5832 23.7794 67.1896 23.8C63.7823 23.6681 60.5754 25.4011 58.8322 28.3165C57.0891 31.2318 57.0891 34.8622 58.8322 37.7775C60.5754 40.6929 63.7823 42.4259 67.1896 42.294C69.6269 42.4036 71.9928 41.4591 73.6778 39.704C75.1523 38.0925 75.9396 35.9741 75.8733 33.796C75.8779 33.2654 75.8308 32.7356 75.7326 32.214L67.1896 32.284ZM82.7978 30.45C79.4962 30.4577 76.8252 33.125 76.8304 36.4093C76.8356 39.6936 79.5149 42.3525 82.8165 42.35C86.1182 42.3474 88.7933 39.6843 88.7933 36.4C88.8165 34.8101 88.1899 33.279 87.057 32.1573C85.924 31.0356 84.3819 30.4195 82.7837 30.45H82.7978ZM89.9474 36.4186C89.9371 33.1362 92.601 30.4654 95.9008 30.45C97.4989 30.4195 99.0411 31.0356 100.174 32.1573C101.307 33.279 101.934 34.8101 101.91 36.4C101.91 39.6824 99.238 42.3448 95.9382 42.3499C92.6384 42.355 89.9578 39.701 89.9474 36.4186ZM92.371 37.9658C93.0137 39.304 94.4134 40.1155 95.9008 40.012C96.8343 39.9905 97.7195 39.5947 98.3555 38.9146C98.9915 38.2345 99.3243 37.3277 99.2785 36.4C99.2749 34.9169 98.3602 33.5867 96.9721 33.0457C95.5839 32.5047 94.0043 32.8627 92.9888 33.9486C91.9733 35.0346 91.7283 36.6276 92.371 37.9658ZM79.2587 37.9765C79.9059 39.3139 81.3097 40.1213 82.7978 40.012H82.7837C83.7172 39.9905 84.6024 39.5947 85.2384 38.9146C85.8744 38.2345 86.2073 37.3277 86.1615 36.4C86.1574 34.9157 85.241 33.585 83.851 33.0452C82.4611 32.5053 80.8806 32.8663 79.8666 33.9552C78.8526 35.044 78.6114 36.6391 79.2587 37.9765ZM125.836 30.45C128.17 30.5355 130.208 32.0449 130.959 34.244L131.255 34.874L123.247 38.164C123.749 39.3011 124.898 40.0173 126.146 39.97C127.35 39.973 128.468 39.3455 129.087 38.318L131.128 39.718C130.017 41.372 128.146 42.3607 126.146 42.35C124.556 42.3732 123.026 41.7524 121.905 40.6302C120.785 39.508 120.172 37.981 120.207 36.4C120.109 34.8551 120.659 33.3391 121.726 32.2119C122.792 31.0848 124.28 30.447 125.836 30.45ZM122.796 36.232C122.739 35.3572 123.037 34.4962 123.625 33.843C124.213 33.1898 125.04 32.7995 125.921 32.76C126.849 32.6992 127.724 33.195 128.144 34.02L122.796 36.232ZM118.926 42H116.294V24.5H118.926V42ZM111.987 31.78H111.889C111.087 30.8877 109.94 30.3784 108.736 30.38C105.542 30.5341 103.031 33.1555 103.031 36.337C103.031 39.5185 105.542 42.1399 108.736 42.294C109.944 42.3142 111.098 41.8016 111.889 40.894H111.973V41.748C111.973 44.03 110.749 45.248 108.779 45.248C107.436 45.2167 106.246 44.3814 105.767 43.134L103.473 44.086C104.356 46.2235 106.455 47.6138 108.779 47.6C111.861 47.6 114.408 45.794 114.408 41.398V30.8H111.987V31.78ZM108.971 40.0116L108.976 40.012H108.961L108.971 40.0116ZM111.343 38.8889C110.739 39.5688 109.882 39.9741 108.971 40.0116C107.091 39.8446 105.65 38.2778 105.65 36.4C105.65 34.5208 107.094 32.953 108.976 32.788C109.885 32.8344 110.737 33.2441 111.338 33.9241C111.94 34.6041 112.24 35.4969 112.17 36.4C112.248 37.3073 111.949 38.2066 111.343 38.8889ZM143.288 24.5H136.997V42H139.629V35.364H143.302C145.347 35.5101 147.302 34.5079 148.369 32.767C149.436 31.026 149.436 28.838 148.369 27.097C147.302 25.3561 145.347 24.3539 143.302 24.5H143.288ZM139.615 32.9H143.288L143.344 32.942C145.012 32.942 146.363 31.5975 146.363 29.939C146.363 28.2805 145.012 26.936 143.344 26.936H139.615V32.9ZM159.516 30.38C157.557 30.2636 155.717 31.3139 154.829 33.054L157.165 34.02C157.636 33.1571 158.574 32.652 159.558 32.732C160.233 32.6536 160.911 32.8482 161.44 33.272C161.97 33.6958 162.305 34.3134 162.373 34.986V35.168C161.527 34.7228 160.585 34.492 159.628 34.496C157.109 34.496 154.561 35.896 154.561 38.43C154.612 39.5216 155.104 40.5466 155.925 41.2717C156.747 41.9969 157.829 42.3605 158.924 42.28C160.274 42.3764 161.57 41.7322 162.302 40.6H162.387V42H164.92V35.266C164.92 32.2 162.584 30.422 159.586 30.422L159.516 30.38ZM157.137 38.486C157.137 39.536 158.333 39.97 159.192 39.97L159.262 40.012C160.848 39.9736 162.162 38.7792 162.344 37.212C161.614 36.8065 160.788 36.6035 159.952 36.624C158.629 36.624 157.137 37.086 157.137 38.486ZM174.153 30.8L171.141 38.388H171.056L167.932 30.8H165.117L169.804 41.412L167.13 47.306H169.874L177.08 30.8H174.153ZM153.126 42H150.494V24.5H153.126V42Z" fill="white"/>
<path fill-rule="evenodd" clip-rule="evenodd" d="M97.4066 10.8781C95.7463 12.6263 95.7463 15.3598 97.4066 17.1081C99.1194 18.8024 101.886 18.8024 103.599 17.1081C105.267 15.3626 105.267 12.6235 103.599 10.8781C102.78 10.0573 101.666 9.5957 100.503 9.5957C99.3403 9.5957 98.2257 10.0573 97.4066 10.8781ZM65.6837 17.1361C66.406 16.3858 66.7876 15.3738 66.7392 14.3361C66.7393 14.1248 66.7205 13.914 66.6829 13.7061H62.5874V14.7141H65.6414C65.6206 15.349 65.3708 15.9552 64.9377 16.4221C63.9731 17.3496 62.5422 17.6088 61.3107 17.079C60.0793 16.5492 59.2892 15.3345 59.3081 14.0001C59.2775 13.117 59.6098 12.2596 60.2286 11.6256C60.8474 10.9916 61.6991 10.6357 62.5874 10.6401C63.4711 10.592 64.326 10.9602 64.8955 11.6341L65.6414 10.8921C65.2811 10.4798 64.8278 10.1584 64.3185 9.95406C63.7715 9.72119 63.1824 9.60208 62.5874 9.60406C61.42 9.57818 60.294 10.0343 59.477 10.8641C58.2195 12.1231 57.8433 14.0093 58.5223 15.6505C59.2013 17.2918 60.8032 18.3682 62.5874 18.3821C63.7506 18.4233 64.8764 17.9702 65.6837 17.1361ZM69.3851 10.8361H73.1851V9.80006H68.2592V18.2001H73.1851V17.1641H69.3851V14.5041H72.8474V13.4961H69.3851V10.8361ZM77.8014 18.2001H76.7177V10.8361H74.3533V9.80006H80.2222V10.8361H77.8014V18.2001ZM85.4437 9.80006H84.36V18.2001H85.4437V9.80006ZM90.257 18.2001H89.1733V10.8361H86.8088V9.80006H92.6074V10.8361H90.257V18.2001ZM107.695 9.80006H106.372V18.2001H107.47V11.3541L111.762 18.2001H112.888V9.80006H111.804V16.3381L107.695 9.80006ZM98.2088 16.4081C99.4774 17.6646 101.528 17.6646 102.797 16.4081C104.043 15.0419 104.043 12.9582 102.797 11.5921C101.528 10.3355 99.4774 10.3355 98.2088 11.5921C96.963 12.9582 96.963 15.0419 98.2088 16.4081Z" fill="white"/>
<path d="M97.4066 17.1081L97.3341 17.177L97.3363 17.1792L97.4066 17.1081ZM97.4066 10.8781L97.3358 10.8074L97.3341 10.8092L97.4066 10.8781ZM103.599 17.1081L103.67 17.1792L103.672 17.1771L103.599 17.1081ZM103.599 10.8781L103.672 10.809L103.67 10.8074L103.599 10.8781ZM66.7392 14.3361L66.6391 14.336L66.6393 14.3407L66.7392 14.3361ZM65.6837 17.1361L65.7555 17.2056L65.7557 17.2054L65.6837 17.1361ZM66.6829 13.7061L66.7813 13.6883L66.7665 13.6061H66.6829V13.7061ZM62.5874 13.7061V13.6061H62.4874V13.7061H62.5874ZM62.5874 14.7141H62.4874V14.8141H62.5874V14.7141ZM65.6414 14.7141L65.7414 14.7173L65.7448 14.6141H65.6414V14.7141ZM64.9377 16.4221L65.0072 16.4943L65.011 16.4901L64.9377 16.4221ZM61.3107 17.079L61.2712 17.1709L61.3107 17.079ZM59.3081 14.0001L59.4082 14.0015L59.408 13.9966L59.3081 14.0001ZM60.2286 11.6256L60.157 11.5557L60.2286 11.6256ZM62.5874 10.6401L62.5869 10.7402L62.5928 10.7399L62.5874 10.6401ZM64.8955 11.6341L64.8191 11.6986L64.8891 11.7814L64.966 11.705L64.8955 11.6341ZM65.6414 10.8921L65.712 10.963L65.7784 10.8968L65.7167 10.8262L65.6414 10.8921ZM64.3185 9.95406L64.2793 10.0461L64.2812 10.0469L64.3185 9.95406ZM62.5874 9.60406L62.5851 9.70406L62.5877 9.70406L62.5874 9.60406ZM59.477 10.8641L59.5477 10.9347L59.5482 10.9342L59.477 10.8641ZM58.5223 15.6505L58.4299 15.6888L58.5223 15.6505ZM62.5874 18.3821L62.5909 18.2821L62.5881 18.2821L62.5874 18.3821ZM73.1851 10.8361V10.9361H73.2851V10.8361H73.1851ZM69.3851 10.8361V10.7361H69.2851V10.8361H69.3851ZM73.1851 9.80006H73.2851V9.70006H73.1851V9.80006ZM68.2592 9.80006V9.70006H68.1592V9.80006H68.2592ZM68.2592 18.2001H68.1592V18.3001H68.2592V18.2001ZM73.1851 18.2001V18.3001H73.2851V18.2001H73.1851ZM73.1851 17.1641H73.2851V17.0641H73.1851V17.1641ZM69.3851 17.1641H69.2851V17.2641H69.3851V17.1641ZM69.3851 14.5041V14.4041H69.2851V14.5041H69.3851ZM72.8474 14.5041V14.6041H72.9474V14.5041H72.8474ZM72.8474 13.4961H72.9474V13.3961H72.8474V13.4961ZM69.3851 13.4961H69.2851V13.5961H69.3851V13.4961ZM76.7177 18.2001H76.6177V18.3001H76.7177V18.2001ZM77.8014 18.2001V18.3001H77.9014V18.2001H77.8014ZM76.7177 10.8361H76.8177V10.7361H76.7177V10.8361ZM74.3533 10.8361H74.2533V10.9361H74.3533V10.8361ZM74.3533 9.80006V9.70006H74.2533V9.80006H74.3533ZM80.2222 9.80006H80.3222V9.70006H80.2222V9.80006ZM80.2222 10.8361V10.9361H80.3222V10.8361H80.2222ZM77.8014 10.8361V10.7361H77.7014V10.8361H77.8014ZM84.36 9.80006V9.70006H84.26V9.80006H84.36ZM85.4437 9.80006H85.5437V9.70006H85.4437V9.80006ZM84.36 18.2001H84.26V18.3001H84.36V18.2001ZM85.4437 18.2001V18.3001H85.5437V18.2001H85.4437ZM89.1733 18.2001H89.0733V18.3001H89.1733V18.2001ZM90.257 18.2001V18.3001H90.357V18.2001H90.257ZM89.1733 10.8361H89.2733V10.7361H89.1733V10.8361ZM86.8088 10.8361H86.7088V10.9361H86.8088V10.8361ZM86.8088 9.80006V9.70006H86.7088V9.80006H86.8088ZM92.6074 9.80006H92.7074V9.70006H92.6074V9.80006ZM92.6074 10.8361V10.9361H92.7074V10.8361H92.6074ZM90.257 10.8361V10.7361H90.157V10.8361H90.257ZM106.372 9.80006V9.70006H106.272V9.80006H106.372ZM107.695 9.80006L107.779 9.74684L107.75 9.70006H107.695V9.80006ZM106.372 18.2001H106.272V18.3001H106.372V18.2001ZM107.47 18.2001V18.3001H107.57V18.2001H107.47ZM107.47 11.3541L107.554 11.3009L107.37 11.0063V11.3541H107.47ZM111.762 18.2001L111.677 18.2532L111.707 18.3001H111.762V18.2001ZM112.888 18.2001V18.3001H112.988V18.2001H112.888ZM112.888 9.80006H112.988V9.70006H112.888V9.80006ZM111.804 9.80006V9.70006H111.704V9.80006H111.804ZM111.804 16.3381L111.72 16.3913L111.904 16.6851V16.3381H111.804ZM102.797 16.4081L102.867 16.4792L102.871 16.4754L102.797 16.4081ZM98.2088 16.4081L98.1349 16.4755L98.1385 16.4791L98.2088 16.4081ZM102.797 11.5921L102.871 11.5246L102.867 11.521L102.797 11.5921ZM98.2088 11.5921L98.1384 11.5209L98.135 11.5247L98.2088 11.5921ZM97.4791 17.0392C95.8554 15.3295 95.8554 12.6566 97.4791 10.9469L97.3341 10.8092C95.6371 12.5961 95.6371 15.3901 97.3341 17.1769L97.4791 17.0392ZM103.529 17.037C101.855 18.6927 99.1508 18.6927 97.4769 17.037L97.3363 17.1792C99.0881 18.912 101.918 18.912 103.67 17.1792L103.529 17.037ZM103.527 10.9471C105.157 12.6539 105.157 15.3322 103.527 17.039L103.672 17.1771C105.376 15.393 105.376 12.5931 103.672 10.809L103.527 10.9471ZM100.503 9.6957C101.639 9.6957 102.728 10.1468 103.528 10.9487L103.67 10.8074C102.832 9.96781 101.692 9.4957 100.503 9.4957V9.6957ZM97.4774 10.9487C98.2777 10.1468 99.3668 9.6957 100.503 9.6957V9.4957C99.3138 9.4957 98.1738 9.96781 97.3358 10.8074L97.4774 10.9487ZM66.6393 14.3407C66.6864 15.3509 66.315 16.3362 65.6116 17.0667L65.7557 17.2054C66.4971 16.4355 66.8887 15.3967 66.8391 14.3314L66.6393 14.3407ZM66.5845 13.7238C66.621 13.9259 66.6393 14.1307 66.6392 14.336L66.8392 14.3361C66.8393 14.1189 66.8199 13.9021 66.7813 13.6883L66.5845 13.7238ZM62.5874 13.8061H66.6829V13.6061H62.5874V13.8061ZM62.6874 14.7141V13.7061H62.4874V14.7141H62.6874ZM65.6414 14.6141H62.5874V14.8141H65.6414V14.6141ZM65.011 16.4901C65.4605 16.0056 65.7197 15.3764 65.7414 14.7173L65.5415 14.7108C65.5214 15.3215 65.2812 15.9048 64.8644 16.354L65.011 16.4901ZM61.2712 17.1709C62.5395 17.7165 64.0133 17.4496 65.007 16.4941L64.8684 16.35C63.9328 17.2496 62.5448 17.5011 61.3503 16.9872L61.2712 17.1709ZM59.2081 13.9986C59.1887 15.3738 60.0029 16.6252 61.2712 17.1709L61.3503 16.9872C60.1558 16.4733 59.3898 15.2952 59.4081 14.0015L59.2081 13.9986ZM60.157 11.5557C59.5193 12.2092 59.1766 13.0931 59.2082 14.0035L59.408 13.9966C59.3784 13.1409 59.7004 12.3099 60.3002 11.6954L60.157 11.5557ZM62.5879 10.5401C61.6725 10.5356 60.7948 10.9023 60.157 11.5557L60.3002 11.6954C60.8999 11.0809 61.7256 10.7359 62.5869 10.7401L62.5879 10.5401ZM64.9719 11.5695C64.3821 10.8716 63.4968 10.4905 62.5819 10.5402L62.5928 10.7399C63.4453 10.6936 64.2699 11.0488 64.8191 11.6986L64.9719 11.5695ZM65.5709 10.8212L64.825 11.5632L64.966 11.705L65.712 10.963L65.5709 10.8212ZM64.2812 10.0469C64.7759 10.2453 65.2162 10.5575 65.5661 10.9579L65.7167 10.8262C65.346 10.4021 64.8796 10.0714 64.3557 9.86125L64.2812 10.0469ZM62.5877 9.70406C63.1691 9.70213 63.7448 9.81852 64.2793 10.0461L64.3576 9.86205C63.7981 9.62386 63.1956 9.50204 62.587 9.50406L62.5877 9.70406ZM59.5482 10.9342C60.3459 10.1242 61.4453 9.67876 62.5851 9.70403L62.5896 9.50408C61.3948 9.47759 60.2422 9.94445 59.4057 10.7939L59.5482 10.9342ZM58.6147 15.6123C57.9512 14.0085 58.3188 12.1653 59.5477 10.9347L59.4062 10.7934C58.1203 12.081 57.7354 14.0101 58.4299 15.6888L58.6147 15.6123ZM62.5881 18.2821C60.844 18.2685 59.2783 17.2162 58.6147 15.6123L58.4299 15.6888C59.1244 17.3673 60.7625 18.4679 62.5866 18.4821L62.5881 18.2821ZM65.6118 17.0665C64.8243 17.8802 63.7259 18.3223 62.5909 18.2821L62.5838 18.482C63.7752 18.5242 64.9285 18.0601 65.7555 17.2056L65.6118 17.0665ZM73.1851 10.7361H69.3851V10.9361H73.1851V10.7361ZM73.0851 9.80006V10.8361H73.2851V9.80006H73.0851ZM68.2592 9.90006H73.1851V9.70006H68.2592V9.90006ZM68.3592 18.2001V9.80006H68.1592V18.2001H68.3592ZM73.1851 18.1001H68.2592V18.3001H73.1851V18.1001ZM73.0851 17.1641V18.2001H73.2851V17.1641H73.0851ZM69.3851 17.2641H73.1851V17.0641H69.3851V17.2641ZM69.2851 14.5041V17.1641H69.4851V14.5041H69.2851ZM72.8474 14.4041H69.3851V14.6041H72.8474V14.4041ZM72.7474 13.4961V14.5041H72.9474V13.4961H72.7474ZM69.3851 13.5961H72.8474V13.3961H69.3851V13.5961ZM69.2851 10.8361V13.4961H69.4851V10.8361H69.2851ZM76.7177 18.3001H77.8014V18.1001H76.7177V18.3001ZM76.6177 10.8361V18.2001H76.8177V10.8361H76.6177ZM74.3533 10.9361H76.7177V10.7361H74.3533V10.9361ZM74.2533 9.80006V10.8361H74.4533V9.80006H74.2533ZM80.2222 9.70006H74.3533V9.90006H80.2222V9.70006ZM80.3222 10.8361V9.80006H80.1222V10.8361H80.3222ZM77.8014 10.9361H80.2222V10.7361H77.8014V10.9361ZM77.9014 18.2001V10.8361H77.7014V18.2001H77.9014ZM84.36 9.90006H85.4437V9.70006H84.36V9.90006ZM84.46 18.2001V9.80006H84.26V18.2001H84.46ZM85.4437 18.1001H84.36V18.3001H85.4437V18.1001ZM85.3437 9.80006V18.2001H85.5437V9.80006H85.3437ZM89.1733 18.3001H90.257V18.1001H89.1733V18.3001ZM89.0733 10.8361V18.2001H89.2733V10.8361H89.0733ZM86.8088 10.9361H89.1733V10.7361H86.8088V10.9361ZM86.7088 9.80006V10.8361H86.9088V9.80006H86.7088ZM92.6074 9.70006H86.8088V9.90006H92.6074V9.70006ZM92.7074 10.8361V9.80006H92.5074V10.8361H92.7074ZM90.257 10.9361H92.6074V10.7361H90.257V10.9361ZM90.357 18.2001V10.8361H90.157V18.2001H90.357ZM106.372 9.90006H107.695V9.70006H106.372V9.90006ZM106.472 18.2001V9.80006H106.272V18.2001H106.472ZM107.47 18.1001H106.372V18.3001H107.47V18.1001ZM107.37 11.3541V18.2001H107.57V11.3541H107.37ZM111.847 18.1469L107.554 11.3009L107.385 11.4072L111.677 18.2532L111.847 18.1469ZM112.888 18.1001H111.762V18.3001H112.888V18.1001ZM112.788 9.80006V18.2001H112.988V9.80006H112.788ZM111.804 9.90006H112.888V9.70006H111.804V9.90006ZM111.904 16.3381V9.80006H111.704V16.3381H111.904ZM107.61 9.85327L111.72 16.3913L111.889 16.2848L107.779 9.74684L107.61 9.85327ZM102.727 16.337C101.497 17.555 99.5088 17.555 98.2792 16.337L98.1385 16.4791C99.446 17.7743 101.56 17.7743 102.867 16.4791L102.727 16.337ZM102.723 11.6594C103.934 12.9874 103.934 15.0127 102.723 16.3407L102.871 16.4754C104.152 15.0711 104.152 12.929 102.871 11.5247L102.723 11.6594ZM98.2792 11.6631C99.5088 10.4451 101.497 10.4451 102.727 11.6631L102.867 11.521C101.56 10.2258 99.446 10.2258 98.1385 11.521L98.2792 11.6631ZM98.2827 16.3407C97.0717 15.0127 97.0717 12.9874 98.2827 11.6594L98.135 11.5247C96.8543 12.929 96.8543 15.0711 98.135 16.4754L98.2827 16.3407Z" fill="white"/>
<path d="M14.6933 10.556C14.2346 11.1036 14.0031 11.8045 14.0459 12.516V43.484C14.0031 44.1955 14.2346 44.8965 14.6933 45.444L14.7919 45.542L32.2296 28.21V27.804L14.7919 10.458L14.6933 10.556Z" fill="url(#paint0_linear_0_793)"/>
<path d="M38 33.9918L32.2296 28.2098V27.8038L38 22.0078L38.1267 22.0778L45.037 25.9838C47.0074 27.0898 47.0074 28.9098 45.037 30.0298L38.1548 33.9218L38 33.9918Z" fill="url(#paint1_linear_0_793)"/>
<path d="M38.1689 33.908L32.2297 28L14.6934 45.444C15.5219 46.1685 16.7516 46.2038 17.6208 45.528L38.183 33.908" fill="url(#paint2_linear_0_793)"/>
<path d="M38.169 22.0919L17.6067 10.4719C16.7376 9.79606 15.5079 9.83134 14.6793 10.5559L32.2297 27.9999L38.169 22.0919Z" fill="url(#paint3_linear_0_793)"/>
<path opacity="0.2" d="M38 33.7817L17.6067 45.3317C16.7722 45.9524 15.6264 45.9524 14.7919 45.3317L14.6934 45.4297L14.7919 45.5277C15.6248 46.1531 16.7737 46.1531 17.6067 45.5277L38.1689 33.9077L38 33.7817Z" fill="black"/>
<path opacity="0.12" fill-rule="evenodd" clip-rule="evenodd" d="M38 33.782L45.037 29.82C45.7643 29.4629 46.284 28.7908 46.4445 28C46.3719 28.8742 45.8351 29.6431 45.037 30.016L38.1267 33.908L38 33.782ZM14.0429 43.5605C14.0661 44.1765 14.2934 44.7706 14.6933 45.248L14.7919 45.36L14.6933 45.458C14.2481 44.9265 14.0169 44.2504 14.0429 43.5605ZM14.0429 43.5605C14.0437 43.5397 14.0447 43.5189 14.0459 43.498V43.288C14.0404 43.3791 14.0395 43.4701 14.0429 43.5605Z" fill="black"/>
<path opacity="0.25" d="M17.6067 10.6679L45.037 26.1799C45.7643 26.537 46.284 27.2091 46.4445 27.9999C46.3719 27.1258 45.8351 26.3569 45.037 25.9839L17.6067 10.4719C15.6363 9.36591 14.0319 10.2899 14.0319 12.5299V12.7399C14.0741 10.4859 15.6504 9.56191 17.6067 10.6679Z" fill="white"/>
<defs>
<linearGradient id="paint0_linear_0_793" x1="24.592" y1="-10.5826" x2="-3.31063" y2="-3.12253" gradientUnits="userSpaceOnUse">
<stop stop-color="#00A0FF"/>
<stop offset="0.01" stop-color="#00A1FF"/>
<stop offset="0.26" stop-color="#00BEFF"/>
<stop offset="0.51" stop-color="#00D2FF"/>
<stop offset="0.76" stop-color="#00DFFF"/>
<stop offset="1" stop-color="#00E3FF"/>
</linearGradient>
<linearGradient id="paint1_linear_0_793" x1="47.6126" y1="13.7194" x2="13.5674" y2="13.7194" gradientUnits="userSpaceOnUse">
<stop stop-color="#FFE000"/>
<stop offset="0.41" stop-color="#FFBD00"/>
<stop offset="0.78" stop-color="#FFA500"/>
<stop offset="1" stop-color="#FF9C00"/>
</linearGradient>
<linearGradient id="paint2_linear_0_793" x1="14.1781" y1="18.9385" x2="-8.07652" y2="56.5709" gradientUnits="userSpaceOnUse">
<stop stop-color="#FF3A44"/>
<stop offset="1" stop-color="#C31162"/>
</linearGradient>
<linearGradient id="paint3_linear_0_793" x1="0.999348" y1="5.73428" x2="10.9327" y2="22.539" gradientUnits="userSpaceOnUse">
<stop stop-color="#32A071"/>
<stop offset="0.07" stop-color="#2DA771"/>
<stop offset="0.48" stop-color="#15CF74"/>
<stop offset="0.8" stop-color="#06E775"/>
<stop offset="1" stop-color="#00F076"/>
</linearGradient>
</defs>
</svg>
