<svg width="362" height="195" viewBox="0 0 362 195" fill="none" xmlns="http://www.w3.org/2000/svg">
<g opacity="0.0724574">
<path fill-rule="evenodd" clip-rule="evenodd" d="M14.0053 121.726H12.3631C12.3631 121.726 14.1695 124.687 13.6769 125.509C12.4007 124.642 11.0215 123.938 9.57128 123.412C8.66806 123.33 7.60061 126.208 7.60061 126.208C7.60061 126.208 7.19005 126.743 6.77949 126.167C6.36893 125.592 5.58888 124.563 4.76776 124.892C3.99605 125.289 3.28984 125.802 2.67392 126.414C2.67392 126.414 1.52436 122.96 0.580077 123.083C-0.364205 123.206 0.128464 124.399 0.128464 124.399C0.60505 125.444 0.69243 126.626 0.374798 127.73C0.0191371 128.854 0.0191371 130.06 0.374798 131.184V138.545C0.374798 138.545 2.38653 139.985 2.79709 140.889C2.98296 141.299 3.08468 142.003 3.18988 142.732C3.31704 143.613 3.44928 144.529 3.74137 145.002C3.96062 145.356 4.40159 145.808 4.86503 146.283C5.52973 146.964 6.24066 147.693 6.40999 148.25C6.51002 148.579 6.5056 149.198 6.5006 149.897C6.49124 151.206 6.47985 152.799 7.14899 153.308C7.43558 153.527 7.79899 153.751 8.18291 153.988C9.17397 154.601 10.3018 155.298 10.5977 156.187C10.8104 157.565 10.6979 158.973 10.2692 160.299C10.1873 161.399 10.3269 162.504 10.6798 163.548C10.7112 163.653 10.7907 163.8 10.8862 163.978C11.1653 164.497 11.5814 165.27 11.3367 165.974C11.0082 166.92 11.0082 168.524 11.3367 168.524C12.6618 168.947 14.0549 169.114 15.4423 169.017C15.9523 167.965 16.2323 166.815 16.2634 165.645C16.2194 164.472 16.4441 163.305 16.9203 162.232C18.2232 160.963 19.418 159.588 20.4921 158.12C20.6294 157.648 20.5418 156.914 20.4576 156.208C20.3656 155.437 20.2777 154.7 20.4921 154.378C20.7058 154.057 21.5199 153.858 22.4021 153.643C23.215 153.445 24.0858 153.232 24.5977 152.897C24.8664 152.721 25.117 152.524 25.3506 152.341L25.3508 152.34C26.045 151.795 26.59 151.367 27.02 151.951C27.5591 152.595 28.295 153.043 29.1138 153.226H31.3719C31.3719 153.226 32.5625 153.843 33.0962 153.555C33.6954 153.291 33.9972 152.616 33.7942 151.992C33.5068 151.334 33.671 150.512 34.2047 150.306C34.7384 150.101 36.0522 148.703 36.0112 147.962C36.0009 147.778 36.0137 147.542 36.0278 147.281C36.0701 146.499 36.1244 145.495 35.6006 145.002C35.3977 144.81 35.1496 144.64 34.9068 144.473C34.3148 144.066 33.7546 143.681 33.9584 143.069C34.1013 142.639 34.3762 142.261 34.6215 141.923C34.8695 141.581 35.0873 141.281 35.1079 141.013C35.1338 140.676 34.9154 140.356 34.7502 140.113C34.653 139.971 34.5742 139.855 34.5742 139.779C35.3644 139.094 36.2674 138.551 37.2428 138.175C38.4427 137.457 39.5118 136.539 40.4041 135.461C40.8434 135.458 41.2679 135.619 41.5947 135.913C42.1695 136.53 44.5097 135.913 44.5097 135.913C44.0872 136.666 43.8745 137.518 43.8939 138.381C44.017 139.409 44.9613 139.985 45.5361 139.409L47.7531 137.065C48.5802 136.795 49.4715 136.795 50.2986 137.065C51.9509 137.461 53.6521 137.613 55.3484 137.517C55.2252 137.558 55.2253 138.34 55.8 138.915C56.0359 139.152 56.3822 139.249 56.7513 139.353C57.2818 139.503 57.8591 139.666 58.2223 140.272C58.5491 140.818 58.6678 141.19 58.7624 141.486C58.8462 141.748 58.911 141.952 59.0845 142.164C59.2357 142.349 59.5246 142.431 59.8468 142.522C60.3117 142.654 60.8463 142.805 61.1373 143.316C61.4575 144.083 61.6114 144.91 61.5889 145.742C61.7771 146.442 61.7771 147.18 61.5889 147.88C61.3301 148.571 61.6957 148.557 62.0508 148.542C62.2027 148.536 62.3527 148.53 62.4511 148.579C62.6113 148.659 62.8008 149.053 63.0101 149.487C63.2299 149.943 63.4714 150.445 63.7238 150.676C64.7152 151.119 65.8063 151.289 66.8851 151.17C67.6755 151.146 68.3759 151.677 68.5684 152.445C68.7452 152.941 69.8672 152.979 70.6732 153.006C70.8026 153.011 70.9238 153.015 71.0317 153.02C71.8118 153.062 72.1813 153.843 72.2223 154.542C72.2289 154.653 72.2291 154.82 72.2295 155.023C72.2313 156.092 72.2348 158.159 73.1666 158.366C73.5387 158.449 73.8599 158.439 74.1598 158.43C74.7532 158.412 75.2628 158.396 75.9173 159.107C76.9027 160.176 80.3514 159.477 80.3514 159.477C80.9617 158.815 80.9617 157.795 80.3514 157.133L80.2485 157C79.2753 155.743 78.038 154.145 78.7912 153.391C78.9858 153.176 79.2616 153.054 79.5508 153.054C79.84 153.054 80.1158 153.176 80.3103 153.391C80.6625 153.741 81.2308 153.741 81.583 153.391C81.7991 153.188 81.9841 152.874 82.176 152.548C82.5674 151.883 82.9876 151.169 83.759 151.252C83.8773 151.265 83.9961 151.279 84.1138 151.293C85.1393 151.414 86.0823 151.525 85.9349 150.676C85.7707 149.731 85.278 146.852 87.2487 147.14C88.3596 147.302 88.6616 147.778 88.9196 148.184C89.1193 148.499 89.2926 148.772 89.7942 148.826C90.1779 148.867 90.5021 148.844 90.8035 148.823C91.4052 148.78 91.9159 148.744 92.627 149.237C94.3438 149.981 96.1323 150.546 97.9643 150.923C99.2634 150.882 100.562 151.021 101.824 151.334C102.123 151.613 102.792 151.624 103.462 151.634C104.077 151.643 104.692 151.653 105.026 151.869C105.76 152.249 106.632 152.249 107.366 151.869C107.67 151.531 108.102 151.338 108.557 151.338C109.011 151.338 109.444 151.531 109.747 151.869C110.024 152.127 110.237 152.332 110.407 152.496C110.943 153.013 111.057 153.123 111.431 153.185C111.532 153.202 111.683 153.205 111.859 153.208H111.859C112.534 153.221 113.574 153.242 113.606 154.09C113.622 154.498 113.357 155.235 113.078 156.011C112.625 157.27 112.135 158.631 112.744 158.86C113.112 158.998 113.468 159.016 113.813 159.033C114.392 159.062 114.939 159.09 115.454 159.682C115.79 160.07 115.941 160.436 116.069 160.748C116.253 161.198 116.391 161.535 116.973 161.656C117.958 161.862 118.369 162.602 118.328 162.808C118.315 162.875 118.157 163.082 117.968 163.33L117.968 163.33C117.577 163.844 117.052 164.535 117.384 164.535C117.914 164.9 118.547 165.087 119.19 165.069C121.067 165.04 122.921 164.65 124.65 163.918C125.678 163.388 126.873 163.284 127.976 163.63C127.397 164.654 127.235 165.862 127.524 167.002C127.726 167.506 128.093 168.166 128.485 168.872L128.485 168.872L128.486 168.872L128.486 168.872L128.486 168.873C129.214 170.181 130.029 171.645 130.029 172.554C130.185 174.522 130.657 176.452 131.425 178.27C131.698 179.525 131.808 180.811 131.753 182.094C131.753 182.094 132.246 182.999 133.847 182.094C135.448 181.19 135.941 181.683 136.269 182.341C136.335 182.472 136.395 182.62 136.459 182.775C136.715 183.399 137.024 184.15 137.911 184.479C139.397 184.666 140.901 184.666 142.387 184.479C142.387 184.479 144.686 184.479 145.26 187.564C145.649 189.826 147.215 191.708 149.366 192.498C149.994 192.678 150.426 192.367 150.823 192.081C151.152 191.844 151.457 191.624 151.829 191.717C152.305 191.836 152.45 192.699 152.583 193.493C152.68 194.07 152.771 194.611 152.979 194.801C153.472 195.254 155.812 194.842 156.304 194.472C156.513 194.316 156.919 194.409 157.399 194.519C158.055 194.67 158.849 194.852 159.466 194.472C159.898 194.206 160.257 193.831 160.593 193.48C161.086 192.964 161.532 192.498 162.093 192.498C163.28 192.455 164.437 192.116 165.46 191.511C166.57 190.753 167.602 189.885 168.539 188.921C169.41 188.664 170.337 188.664 171.208 188.921C172.276 189.501 173.531 189.634 174.697 189.291C174.997 189.094 175.374 189.054 175.709 189.185C176.043 189.315 176.293 189.6 176.381 189.949C176.442 190.071 176.501 190.223 176.567 190.39C176.853 191.12 177.248 192.128 178.351 192.128C179.252 192.226 180.16 192.226 181.061 192.128C181.061 192.128 181.225 192.581 183.73 192.581H186.973C186.973 192.581 189.272 191.429 188.944 190.525C188.55 189.685 188.054 188.897 187.466 188.181C187.159 187.135 187.497 186.006 188.328 185.302C189.724 183.904 190.627 182.588 190.627 181.683C192.417 182.969 194.512 183.763 196.703 183.986C199.854 184.206 199.866 184.23 200.124 184.729L200.126 184.733C200.137 184.754 200.149 184.777 200.161 184.8C200.175 184.826 200.189 184.853 200.205 184.881C200.214 184.898 200.224 184.915 200.234 184.932C200.315 185.069 200.413 185.313 200.536 185.619L200.537 185.62L200.537 185.621C201.04 186.872 201.96 189.158 203.806 189.455C205.456 189.831 207.187 189.567 208.65 188.715C209.527 187.953 210.616 187.48 211.771 187.358C212.293 187.414 212.994 187.589 213.691 187.763C214.529 187.973 215.361 188.181 215.876 188.181C216.188 188.181 216.535 188.145 216.885 188.108H216.885H216.885H216.885H216.885H216.886H216.886H216.886H216.886H216.886H216.886H216.886H216.887C217.598 188.035 218.324 187.96 218.791 188.181C219.019 188.288 219.291 188.606 219.616 188.986L219.616 188.987L219.616 188.987L219.616 188.987L219.616 188.987C220.285 189.77 221.175 190.812 222.363 190.812C226.276 190.715 230.091 189.565 233.407 187.481C235.345 185.628 237.13 183.62 238.744 181.478C238.744 181.478 239.73 180.408 240.715 181.025C240.823 181.093 240.931 181.163 241.039 181.233C241.917 181.802 242.798 182.374 243.712 181.642C244.382 180.954 245.366 180.672 246.299 180.902C247.561 181.25 248.895 181.25 250.158 180.902C250.631 180.643 251.319 179.763 251.979 178.919C252.578 178.153 253.153 177.416 253.524 177.201C253.82 177.033 254.002 176.719 254.002 176.378C254.002 176.038 253.82 175.724 253.524 175.556C252.6 174.381 252.082 172.938 252.046 171.444C252.121 170 252.397 168.574 252.868 167.208C253.237 166.056 253.689 164.288 251.102 163.918C248.516 163.548 251.102 161.327 251.102 161.327L257.055 156.434C258.428 156.583 259.816 156.499 261.161 156.187C262.031 155.896 262.319 155.618 262.52 155.424C262.688 155.262 262.794 155.159 263.131 155.159C264.588 155.536 265.975 156.147 267.237 156.968C268.058 157.585 277.665 165.81 277.665 165.81C278.408 166.365 279.427 166.365 280.17 165.81C281.224 165.069 282.497 164.706 283.782 164.782C284.103 164.8 284.449 164.932 284.809 165.068C285.234 165.23 285.678 165.398 286.123 165.398C286.47 165.398 286.641 165.281 286.816 165.161C287.054 164.996 287.3 164.827 288.011 164.946C288.604 165.045 289.234 165.743 289.893 166.473C290.605 167.261 291.35 168.087 292.117 168.236C293.941 168.414 295.687 167.45 296.51 165.81C297.3 163.375 298.716 161.191 300.615 159.477C302.093 158.819 303.202 162.109 303.202 162.109C303.453 164.632 304.133 167.094 305.214 169.387C306.011 170.611 305.948 171.956 305.905 172.886C305.881 173.394 305.863 173.778 305.994 173.952C306.386 174.458 306.504 175.126 306.306 175.735C306.109 176.345 305.623 176.817 305.008 176.995C303.038 177.859 302.545 178.229 302.463 179.092C302.422 179.519 302.081 179.856 301.775 180.157C301.463 180.464 301.189 180.734 301.313 181.025C301.392 181.21 301.754 181.449 302.237 181.769L302.237 181.769C303.261 182.448 304.833 183.489 305.419 185.137C305.839 186.319 305.811 186.848 305.79 187.235C305.768 187.643 305.755 187.896 306.281 188.592C306.281 188.592 305.788 190.895 306.281 191.306C306.774 191.717 307.431 190.483 307.431 189.702V187.152C307.431 187.152 307.348 184.685 308.744 184.973C309.854 185.179 310.983 185.262 312.111 185.22C314.186 183.977 315.668 181.944 316.217 179.586C316.556 176.704 316.556 173.791 316.217 170.909C315.993 169.29 316.077 167.644 316.463 166.056C316.768 163.72 316.544 161.344 315.806 159.107C315.217 156.015 315.148 152.846 315.601 149.731C315.755 149.245 315.293 148.474 314.833 147.705C314.436 147.043 314.041 146.382 314.041 145.906C313.831 144.371 313.157 142.936 312.111 141.794C310.671 140.496 309.301 139.124 308.005 137.682C307.48 136.533 307.027 135.351 306.651 134.145C306.404 133.158 305.542 130.526 304.392 130.033C303.243 129.539 301.929 128.758 301.683 127.936C300.817 126.762 299.395 126.136 297.947 126.291H294.252C293.559 126.539 293.144 127.25 293.266 127.977C293.266 128.468 293.327 128.98 293.385 129.464C293.491 130.357 293.586 131.154 293.266 131.554C292.774 132.171 291.788 133.076 290.926 132.171C290.511 131.736 290.41 131.301 290.335 130.975C290.253 130.624 290.201 130.401 289.818 130.444C289.437 130.486 289.427 131.021 289.416 131.58C289.407 132.104 289.397 132.65 289.079 132.829C288.422 133.199 287.313 131.225 287.313 131.225C286.642 130.698 285.673 130.808 285.137 131.472C284.234 132.665 282.51 133.282 282.51 132.253C282.481 131.572 282.622 130.893 282.92 130.28C283.488 129.523 283.778 128.593 283.741 127.648V104.578C283.973 103.08 284.581 101.665 285.507 100.465C286.373 99.4783 287.455 98.7044 288.668 98.2037C289.409 97.7923 289.753 96.9123 289.489 96.1065C289.489 95.6725 290.259 95.1511 291.132 94.5597C292.245 93.8061 293.526 92.9389 293.595 91.9942C293.632 91.479 293.624 91.0138 293.617 90.5996V90.5991V90.5986V90.5981V90.5976C293.599 89.6573 293.587 88.9805 294.129 88.581C294.456 88.3391 294.538 87.9736 294.613 87.6343C294.717 87.1662 294.81 86.7477 295.524 86.7716C296.119 86.7914 296.504 87.1567 296.881 87.5152C297.284 87.8988 297.679 88.2747 298.316 88.2109C299.548 88.0875 300.123 86.6071 300.369 85.8669C300.423 85.7041 300.467 85.5015 300.516 85.2784C300.689 84.487 300.918 83.4374 301.847 82.9883C302.204 82.8738 302.446 82.5413 302.446 82.1658C302.446 81.7903 302.204 81.4579 301.847 81.3434C301.244 81.3953 300.644 81.2192 300.164 80.8499C300.122 80.8134 300.076 80.7742 300.027 80.7324C299.363 80.1623 298.135 79.1095 297.906 77.8068C297.659 76.4086 297.659 73.2422 297.659 73.2422C297.356 72.5232 296.984 71.8347 296.551 71.186C295.762 70.2164 295.557 68.895 296.017 67.7317C296.23 67.3986 296.447 66.9403 296.669 66.4729C297.131 65.4977 297.611 64.483 298.111 64.483C299.18 64.8496 300.211 65.3177 301.19 65.8812C301.19 65.8812 302.914 66.498 303.202 65.8812C303.135 64.3192 302.773 62.7841 302.134 61.3577C301.806 60.6997 302.134 58.9725 302.463 58.8903C302.791 58.808 301.272 57.5744 300.041 57.3687C298.809 57.1631 298.398 54.6135 298.809 53.9144C299.343 53.1845 299.964 52.5218 300.656 51.9405C300.75 53.1732 300.998 54.389 301.395 55.5593C302.336 56.588 303.398 57.4993 304.557 58.2734C305.647 58.7198 306.279 59.8668 306.076 61.0287C306.14 62.6075 306.416 64.1705 306.897 65.6756C307.102 66.3335 309.894 71.3505 309.894 71.3505C310.565 72.3698 310.961 73.5457 311.043 74.7637C310.973 77.0389 311.306 79.3085 312.029 81.4667C314.031 84.5783 316.512 87.3539 319.378 89.6913L319.494 89.7551L319.652 89.8421L319.922 89.9907L320.432 90.273C322.662 91.5059 325.802 93.2428 327.835 94.0503L336.046 97.4224C336.046 97.4224 338.058 98.286 338.099 97.5046C338.258 95.93 338.119 94.3395 337.689 92.8166C337.402 91.6815 336.753 90.6709 335.841 89.938C335.265 89.4967 334.731 89.2586 334.276 89.0559C333.629 88.7675 333.143 88.5509 332.926 87.923C332.557 86.8538 333.706 85.6613 333.706 85.6613C333.962 85.2942 334.027 84.8265 333.881 84.4034C333.735 83.9803 333.395 83.6529 332.967 83.5229C331.243 83.0294 329.19 81.0555 329.642 79.4106C329.747 79.0284 329.894 78.6484 330.036 78.2794L330.037 78.279C330.508 77.0601 330.934 75.9612 329.642 75.2983C329.168 75.0555 328.517 74.8419 327.834 74.6183C326.089 74.0467 324.144 73.4094 324.469 72.0496L324.502 71.9088C324.932 70.1108 325.149 69.2028 324.469 68.842C323.325 68.5622 322.156 68.3969 320.979 68.3485C320.333 68.2834 319.747 67.9377 319.378 67.4027C319.291 67.2853 319.206 67.166 319.122 67.0491C318.532 66.2244 318.028 65.5205 317.777 66.4569C317.489 67.5261 317.12 67.9784 316.422 67.9784C315.724 67.9784 312.932 64.483 312.932 64.483C312.529 63.4295 311.831 62.5154 310.92 61.8511C309.689 61.2754 309.073 60.5763 309.689 59.795C310.122 59.1964 310.506 58.5638 310.838 57.9033C311.12 57.4504 311.12 56.8759 310.838 56.4229C310.598 56.0564 310.418 55.6538 310.304 55.2304C310.304 55.2304 311.495 55.6827 311.865 55.2304C312.234 54.778 311.249 52.3518 311.249 52.3518C311.249 52.3518 310.222 49.7199 311.249 48.2395C312.275 46.7591 313.096 46.4301 314.123 46.4301C315.149 46.4301 315.601 46.0188 315.149 45.4842C313.602 43.6579 312.342 41.6055 311.413 39.3981C311.068 37.3734 310.518 35.3893 309.771 33.4764C308.884 31.8982 308.247 30.1919 307.882 28.4183C307.819 27.4703 307.926 27.3721 308.183 27.135C308.261 27.0635 308.352 26.9794 308.457 26.8556C308.909 26.321 310.058 23.9359 308.909 23.2779C307.411 22.7277 305.733 23.0261 304.516 24.0592C304.132 24.3243 303.665 24.4411 303.202 24.3882H299.876C299.876 24.3882 299.302 24.1415 298.686 25.0462C298.465 25.371 298.291 25.7541 298.129 26.1117L298.129 26.1121C297.84 26.7506 297.588 27.3079 297.167 27.3079C296.51 27.3079 295.976 26.1565 296.51 25.2107C296.866 24.5079 297.371 23.8907 297.988 23.4013C298.562 22.902 298.828 22.1345 298.686 21.3863C298.259 19.927 297.11 18.7919 295.648 18.3843H292.692C292.161 18.3906 291.706 18.0051 291.624 17.4796C291.542 16.5749 293.061 15.958 293.061 15.958H295.114C295.724 15.8339 296.135 15.2605 296.058 14.6421C296.049 14.3889 296.018 14.1277 295.987 13.8665C295.878 12.9398 295.768 12.012 296.633 11.4345C297.741 10.6943 299.753 9.584 299.753 9.584C300.257 9.23475 300.574 8.67466 300.615 8.06245C300.612 7.53955 301 7.09712 301.519 7.03438C301.519 7.03438 302.422 5.84182 300.738 5.43059C298.801 4.88643 297.097 3.71521 295.894 2.09964C295.524 0.948197 295.032 -0.244365 293.677 0.0434945C291.82 0.953314 290.266 2.38144 289.202 4.15578L289.191 4.24305C289.098 4.9757 288.861 6.84389 289.53 7.19887C290.285 7.54924 291.156 7.54924 291.912 7.19887C292.733 6.91101 292.651 8.92603 291.583 9.29614C290.221 9.48691 288.839 9.48691 287.478 9.29614C286.484 9.43335 285.569 9.91324 284.891 10.6532C283.495 11.9691 277.337 18.1787 277.337 18.1787C275.846 19.5033 274.56 21.0415 273.519 22.7433C272.164 25.1696 270.932 27.9659 270.932 27.9659C270.932 27.9659 270.234 30.68 271.835 30.68C273.132 30.5347 274.441 30.8085 275.571 31.4614C276.598 32.2427 275.407 34.4222 274.175 34.6689C272.944 34.9157 271.302 34.8334 271.178 33.7231C271.055 32.6128 270.809 32.4894 270.398 32.6128C269.988 32.7362 269.577 34.011 269.988 34.5867C270.466 35.7184 270.553 36.9777 270.234 38.1644C269.98 38.6734 269.097 39.9229 268.324 41.0158L268.324 41.016C267.849 41.6887 267.415 42.3021 267.196 42.6468C266.621 43.5515 266.539 44.7029 267.196 45.2786C267.331 45.3972 267.477 45.507 267.613 45.6095L267.613 45.6098L267.614 45.61C268.138 46.0053 268.519 46.2923 267.607 46.5534C266.585 46.9433 265.497 47.1251 264.404 47.088C264.082 47.0236 263.799 46.7256 263.476 46.3869C262.975 45.8612 262.381 45.2375 261.407 45.2375C260.571 45.2383 259.744 45.4207 258.985 45.7721C257.864 46.2769 256.992 47.2098 256.563 48.3628C256.001 49.4658 255.82 50.3716 255.678 51.0871C255.56 51.6787 255.468 52.1401 255.208 52.4751C255.02 52.7163 254.829 53.0273 254.637 53.3384C254.24 53.9823 253.843 54.6269 253.483 54.6546C253.431 54.6586 253.377 54.6634 253.32 54.6684L253.32 54.6684C252.795 54.7143 252.101 54.7751 251.841 54.3668C251.693 54.1764 251.466 54.065 251.225 54.065C250.985 54.065 250.757 54.1764 250.609 54.3668C250.071 55.1347 249.205 55.6063 248.269 55.6416C247.467 55.5402 246.787 55.0018 246.504 54.2434C246.258 53.7911 245.149 53.5443 244.451 54.6958C244.019 55.4614 244.019 56.3975 244.451 57.1631C244.456 57.2092 244.463 57.2683 244.472 57.3377C244.544 57.8878 244.701 59.092 244.082 59.7127C243.384 60.4118 241.824 57.2454 241.824 57.2454C241.824 57.2454 241.495 56.5052 240.346 57.2454C239.196 57.9856 236.733 59.8772 236.733 59.8772C236.733 59.8772 235.542 63.4138 238.17 64.9765C240.797 66.5391 238.17 67.2382 238.17 67.2382C238.17 67.2382 236.486 66.9504 236.527 67.485C236.551 67.7966 237.008 68.1223 237.392 68.3967C237.668 68.593 237.906 68.7631 237.923 68.8831C237.964 69.171 235.008 69.171 234.926 69.171C234.92 69.171 234.906 69.1696 234.887 69.1676C234.642 69.1426 233.442 69.0197 233.366 70.1991C233.284 71.4739 233.079 71.8851 232.175 71.8851C231.861 71.8851 231.552 71.7855 231.256 71.6903C230.702 71.5119 230.196 71.3489 229.794 71.8851C229.456 72.337 229.762 72.9626 230.1 73.6529C230.377 74.2191 230.675 74.8287 230.656 75.4217C230.615 76.7376 229.712 76.6554 227.824 75.9974C226.944 75.6908 226.42 75.2682 225.913 74.8584C225.331 74.3888 224.77 73.9361 223.718 73.6945C221.747 73.2422 224.005 72.6253 224.005 72.6253C224.005 72.6253 224.785 72.2141 224.005 71.3094C223.225 70.4047 221.131 68.7187 219.9 69.3355C219.504 69.5337 219.265 69.7192 219.079 69.8633C218.687 70.1676 218.533 70.2872 217.642 69.9523C216.996 69.7096 216.677 69.4371 216.432 69.2277C216.18 69.0113 216.006 68.8623 215.63 68.8831C214.891 68.9243 213.741 69.5822 214.234 70.3224C214.899 71.0883 215.277 72.0628 215.302 73.0777C215.548 74.8871 214.152 75.1338 213.372 75.1338C211.99 75.28 210.592 75.14 209.266 74.7226C208.925 74.5452 208.665 74.364 208.431 74.2005C207.905 73.8332 207.507 73.5554 206.598 73.6123C205.284 73.6945 203.313 75.9974 203.313 75.9974C203.313 75.9974 202.656 76.6965 201.712 75.9974C201.455 75.8068 201.225 75.5827 201.006 75.3699C200.424 74.802 199.924 74.315 199.208 74.7637C198.721 75.0686 198.725 75.4537 198.73 75.9044C198.735 76.3656 198.742 76.8954 198.222 77.4778C197.196 78.6293 192.516 82.1658 192.516 82.1658C192.269 81.3313 192.437 80.429 192.967 79.7396C193.87 78.7115 196.211 75.6273 196.211 75.6273C196.308 74.8459 196.59 74.099 197.032 73.4478C197.235 73.1873 197.492 72.958 197.756 72.7213C198.453 72.0984 199.208 71.4238 199.208 69.9935C199.124 69.0151 199.265 68.0306 199.618 67.1149C199.947 66.2924 198.551 64.5652 197.812 63.9895C197.073 63.4138 195.595 62.2624 194.199 62.9615C193.911 63.1054 193.631 63.265 193.361 63.4185C192.322 64.0102 191.445 64.5096 190.955 63.6605C190.34 62.5913 190.093 62.3035 189.395 62.0156C188.831 61.783 189.179 61.2014 189.333 60.9433C189.37 60.8819 189.395 60.8389 189.395 60.8231C189.395 60.7408 188.164 59.2604 186.932 59.6305C185.796 59.9474 184.908 60.8365 184.592 61.9745C184.408 63.0925 184.723 64.235 185.454 65.0998C185.663 65.2927 185.42 65.3034 185.019 65.321C184.395 65.3484 183.389 65.3926 183.114 66.169C182.772 67.134 182.948 67.3686 183.053 67.4256C182.795 67.3505 181.777 67.0863 181.348 67.4438C181.173 67.59 181.092 67.788 181.017 67.9697C180.881 68.2993 180.767 68.5753 180.158 68.3897C179.66 68.238 179.63 67.9265 179.605 67.6658C179.582 67.4316 179.563 67.2382 179.214 67.2382C178.878 67.2382 178.754 67.3989 178.604 67.5938C178.423 67.8285 178.203 68.1128 177.53 68.2252C175.78 68.4468 174.068 68.9032 172.439 69.5822C170.715 70.4047 167.266 72.8721 167.266 73.9413C167.341 74.951 167.697 75.9196 168.293 76.7376C168.293 76.7376 168.621 78.1358 167.102 77.889C165.583 77.6423 160.78 77.6423 160.78 77.6423C160.78 77.6423 158.234 77.8479 159.096 80.1508C159.291 80.6722 159.503 81.1789 159.706 81.6631C160.399 83.3177 160.982 84.7108 160.41 85.5379C159.671 86.6071 158.357 85.6613 157.824 85.2089C157.124 84.4174 156.48 83.5793 155.894 82.7004C155.894 82.7004 155.237 81.6724 153.718 82.7004C153.288 82.9912 152.882 83.1865 152.536 83.3526C151.66 83.7736 151.176 84.006 151.706 85.1267C152.445 86.6893 152.65 87.2651 150.064 86.895C147.477 86.5248 149.53 83.9752 149.53 83.9752C149.53 83.9752 151.788 79.2461 151.008 78.3414C150.228 77.4367 149.941 81.549 149.941 81.549C149.681 82.3589 148.942 82.9184 148.093 82.9472C146.615 83.0294 146.903 85.5379 146.903 85.5379C146.964 86.3814 146.823 87.2274 146.492 88.0053C146.041 88.7044 144.563 92.0353 144.563 92.1176C144.563 92.1282 144.544 92.1761 144.514 92.2522C144.316 92.7633 143.624 94.5453 144.768 94.8317C145.591 95.0082 146.431 95.0909 147.272 95.0784C147.272 95.0784 149.12 95.9009 149.448 97.1345C149.62 98.0611 149.429 99.0186 148.914 99.8075C148.862 99.9065 148.795 100.016 148.725 100.133L148.723 100.135L148.723 100.135C148.352 100.746 147.863 101.552 148.586 102.069C149.448 102.686 149.736 104.701 147.56 104.331C145.384 103.961 147.19 101.535 147.19 101.535C147.595 100.632 147.696 99.6215 147.477 98.6561C147.19 97.5869 146.533 96.5588 145.014 96.9289C143.835 97.1242 142.91 98.0503 142.715 99.2318C142.388 100.537 141.655 101.703 140.621 102.563L140.547 102.618L140.435 102.702L140.322 102.787C139.144 103.673 136.477 105.677 135.243 105.565C133.888 105.441 131.137 102.152 131.137 102.152C131.137 102.152 130.029 101.206 131.507 101.206C131.909 101.206 132.481 101.282 133.127 101.368C134.857 101.598 137.119 101.898 138.076 101L140.744 98.5327C141.376 97.6898 141.721 96.6666 141.73 95.613C141.643 94.6005 141.643 93.5824 141.73 92.5699C141.809 91.6042 142.088 90.6657 142.551 89.8147C143.252 88.156 143.841 86.4525 144.316 84.7154C144.587 83.7864 144.988 82.9004 145.507 82.0836C146.476 81.1264 147.122 79.8899 147.354 78.547C147.261 77.6683 146.835 76.8589 146.164 76.2853C146.164 76.2853 145.712 75.5862 146.574 75.0516C147.436 74.517 146.738 73.7768 146.164 73.6534C145.589 73.53 144.604 74.3525 144.357 75.1338C144.3 75.3167 144.273 75.4613 144.253 75.5744C144.186 75.9446 144.18 75.9781 143.331 75.9152C142.222 75.8329 139.841 79.0405 139.841 79.0405L138.158 80.3564C137.875 80.6064 137.508 80.7388 137.131 80.7265C136.392 80.7265 136.392 82.2481 136.392 82.2481C136.414 82.8947 136.258 83.5347 135.941 84.0986C135.407 84.7977 134.258 86.6893 134.258 86.6893C134.023 87.3797 134.162 88.1427 134.627 88.7044C135.187 89.4616 134.983 89.7024 134.797 89.9225C134.71 90.0251 134.627 90.1232 134.627 90.267C134.599 90.7459 134.684 91.2247 134.873 91.6652C134.873 91.6652 135.284 93.269 134.463 93.5569C133.642 93.8447 132.862 93.2279 132.533 91.9531C131.24 88.5221 129.287 85.3785 126.785 82.7004C124.856 81.6724 124.486 81.9191 124.076 82.7004C123.925 82.9878 123.913 83.3029 123.9 83.6193C123.879 84.1632 123.858 84.7107 123.131 85.1267C122.451 85.4646 121.871 85.975 121.448 86.6071C121.366 86.7305 119.97 86.8127 120.627 85.5379C121.284 84.2631 121.202 83.2761 120.052 83.2761C118.366 83.2021 116.697 82.9118 115.085 82.4126C114.585 82.2094 114.003 82.1428 113.471 82.082C112.602 81.9827 111.867 81.8985 111.841 81.2611C111.8 80.2331 113.442 79.534 113.442 79.534C113.442 79.534 114.222 78.8349 113.442 78.4236C112.706 78.1113 111.933 77.8903 111.143 77.7657C109.13 77.7895 107.121 77.5965 105.149 77.19C103.851 76.5688 102.342 76.5688 101.043 77.19C100.366 77.4313 99.9366 77.7059 99.6142 77.9122C99.0578 78.2682 98.8194 78.4207 98.1695 77.8479C97.4363 76.7917 97.2388 75.4526 97.6358 74.2291C97.6358 74.2291 97.9232 72.5431 98.9085 72.7898C99.362 72.9034 99.4764 73.1389 99.5837 73.36C99.7097 73.6194 99.826 73.859 100.469 73.859C100.824 73.9305 101.193 73.8518 101.488 73.6416C101.784 73.4313 101.979 73.1082 102.029 72.7487C102.029 72.7487 102.48 71.1449 102.111 70.6926C101.991 70.5459 101.897 70.2132 101.79 69.8334C101.567 69.0421 101.285 68.0462 100.592 68.1018C100.127 68.1391 99.8133 68.6324 99.4339 69.2297C98.9761 69.9504 98.4222 70.8224 97.3895 71.2271C95.5009 71.9674 92.0112 76.8199 92.0112 76.8199C92.0112 76.8199 91.108 76.6965 91.6827 75.2572C92.2575 73.8179 92.2575 72.9954 91.6827 72.5431C91.5796 72.4619 91.5042 72.3953 91.4423 72.3406L91.4423 72.3406C91.3627 72.2703 91.3056 72.2197 91.2405 72.1834C91.0742 72.0907 90.8562 72.0907 90.0817 72.0907H90.0816C88.9675 72.2239 87.8383 72.1402 86.7561 71.844C86.1402 71.5973 84.6211 71.5561 84.2927 72.3786C84.2497 72.4862 84.2011 72.6242 84.1464 72.7794L84.1462 72.7799L84.1462 72.78C83.7829 73.8109 83.1513 75.6032 82.1168 74.3525C81.6095 73.7976 81.1429 73.2066 80.7209 72.5842C80.7209 72.5842 80.5156 69.1299 79.4071 68.842C78.2986 68.5542 77.9291 69.1299 77.847 69.9112C77.827 70.1013 77.8264 70.3816 77.8258 70.7003C77.824 71.6916 77.8214 73.0555 77.2311 73.2422C76.7898 73.3666 76.3168 73.3053 75.9216 73.0724C75.5264 72.8396 75.2431 72.4553 75.1373 72.0085C74.9225 70.0322 75.104 68.033 75.671 66.1279C76.5878 64.884 77.7298 63.8239 79.0376 63.0026C79.8587 62.8381 81.5009 62.139 81.5009 60.4118C81.4733 59.1811 81.8642 57.9776 82.6094 56.9986C83.061 56.6285 83.061 58.5202 83.061 58.5202C82.9394 60.0805 82.9394 61.6479 83.061 63.2082C83.3074 64.0718 85.237 69.7878 88.932 69.7878C91.4227 69.7891 93.5293 67.9428 93.8587 65.4699C93.9023 62.7253 93.8064 59.9802 93.5713 57.2454C93.2905 56.1276 93.1254 54.9838 93.0786 53.8322C93.0786 53.8322 92.1343 51.6938 92.7091 50.8302C92.915 50.5208 93.1631 50.3065 93.3778 50.1209C93.7625 49.7885 94.0401 49.5486 93.7766 49.0208C93.1409 48.0992 92.1374 47.4991 91.0258 47.3759H86.0992C86.0992 47.3759 84.7443 47.2114 84.2516 49.1442C83.759 51.077 83.1842 51.4471 81.6241 51.4471C80.915 51.3625 80.1983 51.3625 79.4892 51.4471C78.9705 51.7772 78.5006 52.1786 78.0933 52.6396C77.9844 52.7692 77.8517 52.9384 77.7011 53.1304L77.7004 53.1313L77.6997 53.1322L77.6994 53.1326L77.6992 53.1329L77.6988 53.1334L77.6988 53.1335C76.9413 54.0997 75.7325 55.6416 74.8088 55.6416C73.7682 55.6328 72.7767 56.0842 72.0992 56.8753C71.9379 57.0691 71.7401 57.401 71.5079 57.7906C70.8532 58.8891 69.9253 60.4461 68.7736 60.6586C68.3809 60.731 68.087 60.7566 67.8573 60.7766C67.1745 60.836 67.0585 60.846 66.5977 61.8923C65.9818 63.2904 64.8323 65.141 63.3132 65.141C62.6182 65.141 62.3185 65.0118 61.9934 64.8717C61.608 64.7056 61.1868 64.5241 60.0288 64.5241H55.5537C55.5537 64.5241 54.1989 64.4007 52.6387 64.0718C51.0786 63.7428 50.7502 65.3055 50.7091 65.7578C50.7046 65.8077 50.7016 65.873 50.6981 65.9489L50.698 65.9491C50.6697 66.5613 50.6097 67.8556 49.4774 67.1971C48.1762 66.1114 46.468 65.6462 44.7971 65.9223C43.3287 66.0979 42.3868 66.7657 41.6153 67.3126C40.9416 67.7903 40.398 68.1757 39.7472 68.0607C38.6217 67.8617 38.2702 68.4649 38.0041 68.9216C37.9402 69.0312 37.8812 69.1325 37.8176 69.2121C37.7193 69.3353 37.3338 69.5911 36.8266 69.9278C35.6398 70.7156 33.7863 71.946 33.3836 72.9543C32.8144 74.4366 32.8144 76.0777 33.3836 77.5601C33.9173 78.4648 34.9437 80.2742 33.3836 81.1378C31.5835 81.9947 30.1335 83.447 29.278 85.25C29.0505 85.8197 28.9437 86.631 28.834 87.4631C28.5875 89.3342 28.3271 91.3108 26.6505 90.8839C25.2658 90.5313 25.0885 89.8293 24.953 89.2925C24.8515 88.8904 24.7734 88.581 24.2282 88.581C23.576 88.581 23.2041 89.11 22.8143 89.6647C22.4433 90.1925 22.0559 90.7435 21.3953 90.8839C20.0405 91.1717 21.2311 92.94 22.3396 93.5569C23.4481 94.1737 24.5156 95.3663 24.5156 96.5999C24.3733 97.6418 23.6595 98.5157 22.6681 98.8617C22.0964 99.0423 21.6379 99.4737 21.4222 100.034C21.2065 100.594 21.2571 101.222 21.5596 101.74C22.1958 102.815 21.9899 104.19 21.0669 105.03C20.6153 105.606 20.0815 107.703 21.0669 108.484C22.2212 109.13 22.9183 110.368 22.8733 111.692C22.8775 111.882 22.8803 112.057 22.883 112.22C22.907 113.681 22.9146 114.143 23.6534 115.105C24.4745 116.174 25.7472 119.875 25.0493 120.616C24.4249 121.278 23.6033 121.315 22.9373 121.345L22.9367 121.345L22.9362 121.345L22.9355 121.345C22.8577 121.348 22.7821 121.352 22.7091 121.356C22.0112 121.397 19.8352 123.577 19.8352 123.577C19.4867 123.941 19.0047 124.147 18.5009 124.147C17.9971 124.147 17.5151 123.941 17.1666 123.577C16.7168 123.221 16.3967 122.916 16.1305 122.663C15.4734 122.038 15.1448 121.726 14.0053 121.726ZM108.187 74.1469C106.791 74.1469 106.791 73.3655 106.791 72.9543C106.914 72.4514 107.241 72.023 107.694 71.7729C108.146 71.5229 108.682 71.4741 109.172 71.6384C109.645 71.7514 110.04 72.0731 110.248 72.5128C110.455 72.9525 110.452 73.4628 110.24 73.9001C109.953 74.1469 109.583 74.1469 108.187 74.1469ZM123.665 80.9733C123.911 81.5079 124.486 81.4256 125.143 80.9733C125.8 80.5209 125.718 79.7807 125.554 79.3695C125.389 78.9582 124.897 77.7657 124.076 77.9302C123.255 78.0947 123.378 79.5751 123.378 79.5751C123.386 80.055 123.484 80.5291 123.665 80.9733ZM122.967 75.8329C122.146 76.1619 120.299 73.1188 120.299 73.1188V73.0777C119.954 72.1182 120.717 71.1587 121.321 70.3998C121.365 70.3456 121.407 70.2923 121.448 70.2402C122.018 69.5176 121.569 69.0764 121.108 68.6238C121.071 68.587 121.034 68.5501 120.997 68.513C120.504 68.0196 119.929 68.9243 119.929 68.9243C119.929 68.9243 119.231 69.7056 119.19 68.9243C119.149 68.1429 120.093 65.3877 121.284 65.3877C121.873 65.3981 122.44 65.1592 122.844 64.7297C122.844 64.7297 123.747 63.2904 124.856 63.1671C125.08 63.1421 125.299 63.134 125.513 63.126C126.361 63.0945 127.14 63.0656 127.894 62.0156C128.49 61.2018 129.244 60.5165 130.111 60.0006C131.42 59.2927 132.795 58.7143 134.216 58.2734C135.514 57.954 136.731 57.3656 137.788 56.5463C138.855 56.1142 140.047 56.1142 141.114 56.5463C142.411 57.1293 143.801 57.4774 145.219 57.5744C146.137 57.5744 146.642 57.29 147.104 57.0306C147.427 56.8489 147.728 56.6794 148.134 56.6285C148.232 56.6163 148.327 56.6025 148.419 56.5891C149.257 56.4667 149.879 56.376 150.433 57.8211C151.049 59.4249 147.19 60.4118 147.19 60.4118L140.539 60.8642C139.012 61.1412 137.504 61.512 136.023 61.9745C134.607 62.7003 133.236 63.5105 131.917 64.4008C131.655 64.6228 131.225 64.6169 130.845 64.6118C130.451 64.6065 130.112 64.6018 130.07 64.8531C129.988 65.3466 129.331 65.6756 128.181 66.0868C126.904 66.8135 125.775 67.7763 124.856 68.9243C124.149 69.7946 123.771 70.8867 123.788 72.0085C123.87 72.7898 123.788 75.5039 122.967 75.8329ZM145.671 34.2166C146.903 33.9698 148.052 33.6409 147.724 33.1474C146.873 32.4527 145.853 31.9984 144.768 31.8315C143.947 31.8315 143.659 33.5175 143.659 33.5175C143.741 34.2166 144.48 34.3811 145.671 34.1755V34.2166ZM153.596 38.5704C153.603 39.1687 153.608 39.6037 152.979 39.6037V39.5626C152.575 39.653 152.157 39.667 151.747 39.6037C151.747 39.6037 151.542 38.0821 152.568 37.7943C153.595 37.5064 153.595 37.6709 153.595 38.37C153.595 38.4385 153.596 38.5054 153.596 38.5704ZM154.662 38.6579C154.375 38.9046 154.252 39.4803 154.662 39.6859C155.073 39.8915 156.674 39.6859 156.551 38.6579C156.428 37.6298 154.909 38.37 154.662 38.6167V38.6579ZM179.46 47.1292C179.09 47.5815 177.9 48.8563 177.9 48.8563V48.8152C177.689 49.0238 177.396 49.1264 177.101 49.0945C176.807 49.0626 176.542 48.8996 176.381 48.6507C176.381 48.6507 175.765 46.3889 176.381 45.7721C176.542 45.6102 176.738 45.3774 176.95 45.1245L176.951 45.1239L176.951 45.1236L176.952 45.1221L176.954 45.1207L176.954 45.1202L176.954 45.1201C177.55 44.41 178.278 43.5429 178.762 43.6337C179.419 43.7571 180.199 44.6618 180.199 45.402C180.089 46.0271 179.836 46.6183 179.46 47.1292ZM177.9 52.9686C178.187 54.2434 180.65 54.449 181.472 54.3668C182.293 54.2845 182.293 53.1742 182.252 52.3106C182.23 51.8488 182.302 51.5516 182.373 51.2555C182.436 50.998 182.498 50.7413 182.498 50.3779C182.522 49.9171 182.237 49.4968 181.8 49.3498L178.475 49.6377C177.381 50.0287 177.662 51.4609 177.904 52.6967C177.916 52.7605 177.929 52.8238 177.941 52.8864L177.9 52.9686ZM234.13 59.1135C233.839 59.2058 233.407 59.3429 233.407 57.5332C233.386 57.1223 233.386 56.7105 233.407 56.2996C233.407 56.2996 233.366 55.1892 234.516 55.1892C235.665 55.1892 236.979 56.5463 236.076 57.2865C235.62 57.6597 235.217 58.0957 234.892 58.4468C234.573 58.792 234.33 59.0551 234.187 59.0959C234.176 59.0992 234.164 59.1028 234.152 59.1066L234.13 59.1135ZM183.39 58.7001L183.449 58.6497C183.46 58.6752 183.471 58.7006 183.483 58.7258H183.36L183.39 58.7001ZM183.449 58.6497C183.783 58.363 184.98 57.3444 185.577 56.9575C185.932 56.7275 186.096 56.7314 186.317 56.7368C186.531 56.7419 186.798 56.7484 187.343 56.5463C188.451 56.1351 187.794 54.6546 187.794 54.6546L186.357 53.1742C185.911 52.7 185.343 52.3584 184.715 52.1873C183.771 51.9405 183.155 52.8864 183.401 54.3257C183.595 55.0753 183.492 55.8709 183.114 56.5463C183.039 57.2652 183.155 57.9907 183.449 58.6497ZM223.882 50.5012H225.565L225.689 50.5835C226.433 50.3521 226.263 49.7191 226.101 49.1163C226.004 48.7547 225.909 48.4039 226.017 48.1572C226.193 47.7536 226.524 47.7988 226.943 47.856C227.207 47.8921 227.506 47.9329 227.824 47.8694C228.148 47.8043 228.351 47.6298 228.554 47.4554C228.863 47.189 229.173 46.9226 229.917 47.0469C230.862 47.2046 231.034 47.7974 231.192 48.3435C231.24 48.5096 231.287 48.6713 231.354 48.8152C231.642 49.432 229.548 50.1722 229.548 50.1722C230.049 50.2207 230.544 50.3171 231.026 50.4601C231.929 50.7068 230.533 51.8994 230.533 51.8994C229.875 52.2748 229.324 52.8128 228.932 53.4621C228.357 54.4902 227.577 55.5182 226.797 55.5593C226.31 55.585 226.047 55.3382 225.728 55.039C225.537 54.859 225.325 54.6601 225.032 54.4902C224.047 53.8633 223.375 52.8465 223.184 51.6938C222.774 50.1311 223.882 50.5012 223.882 50.5012ZM236.281 46.3889C236.306 46.381 236.331 46.3728 236.355 46.3644L236.356 46.3639C237.692 45.8912 236.966 44.6508 236.281 44.0449C235.583 43.4281 234.351 44.5795 234.351 44.5795L231.929 46.3889C233.368 46.8468 234.915 46.8387 236.348 46.3665L236.281 46.3889ZM270.193 15.7113C269.577 16.3693 268.222 15.7935 267.935 14.272L268.058 14.2309C267.817 13.4307 267.775 12.5838 267.935 11.7635C267.935 11.7635 268.058 10.4476 268.961 10.4887C269.865 10.5298 270.193 11.7635 270.193 12.1747C270.193 12.2703 270.226 12.477 270.27 12.7463C270.413 13.6353 270.666 15.2063 270.193 15.7113ZM313.835 59.9184C313.425 60.2885 313.835 61.9745 313.835 61.9745C313.926 62.7002 314.164 63.3998 314.533 64.0306C314.985 64.483 315.519 64.0306 315.519 63.6194C315.641 63.0502 315.641 62.4615 315.519 61.8923C315.519 61.2343 314.738 59.2604 313.958 59.8772L313.835 59.9184ZM333.378 63.1671C333.994 63.0437 334.856 63.1259 335.061 63.4549L335.184 63.4138C335.348 63.7017 334.158 64.9765 332.351 64.6064C332.351 64.6064 332.762 63.2904 333.378 63.1671ZM336.703 62.2624C337.771 62.468 338.222 61.0698 338.222 61.0698H336.95C336.046 61.0698 336.046 61.7278 336.046 61.7278C336.046 61.7278 335.718 61.9745 336.826 62.2212L336.703 62.2624ZM338.674 100.013C339.372 99.8486 340.152 101.617 340.152 102.357C340.152 102.508 340.162 102.696 340.173 102.898C340.217 103.686 340.272 104.701 339.783 104.701C339.258 104.242 338.873 103.643 338.674 102.974C338.387 101.864 337.976 100.178 338.674 100.013ZM342.738 108.402C342.996 108.402 342.895 107.982 342.809 107.631C342.772 107.478 342.738 107.338 342.738 107.251C342.601 106.95 342.288 106.768 341.958 106.798C341.63 106.798 341.958 107.703 341.958 107.703C341.958 107.703 342.164 108.361 342.533 108.402H342.738ZM344.216 111.61C344.956 112.514 343.806 112.514 343.519 112.514L343.313 112.679C343.026 112.556 342.821 111.034 342.821 111.034C342.821 111.034 343.478 110.705 344.216 111.61ZM345.751 120.778C345.759 120.765 345.768 120.752 345.777 120.739L345.718 120.844C345.728 120.822 345.739 120.8 345.751 120.778ZM345.707 120.873C345.71 120.863 345.714 120.854 345.718 120.844L345.688 120.899C345.642 120.965 345.603 121.035 345.571 121.109L345.688 120.899C345.694 120.891 345.7 120.882 345.707 120.873ZM345.707 120.873C345.894 120.619 346.177 120.446 346.497 120.4C346.907 120.341 347.319 120.501 347.583 120.821C347.912 121.315 347.583 122.548 347.583 122.548C347.583 122.548 347.296 123.535 346.721 123.412C346.146 123.289 345.777 121.932 345.777 121.932C345.777 121.932 345.544 121.299 345.707 120.873ZM346.434 129.088V128.964L346.228 129.375C346.281 129.268 346.351 129.17 346.434 129.088ZM346.434 129.088V131.76C346.434 131.76 346.434 132.829 347.378 131.308C348.322 129.786 347.87 129.251 347.378 128.964C347.013 128.75 346.67 128.853 346.434 129.088ZM344.258 138.545C344.173 140.066 344.173 141.59 344.258 143.11C344.258 144.261 345.202 144.344 345.653 143.727C345.902 143.387 345.79 142.038 345.687 140.798C345.602 139.785 345.524 138.845 345.653 138.586C345.755 138.382 345.878 138.22 345.995 138.064C346.209 137.779 346.407 137.516 346.434 137.065C346.475 136.366 345.284 135.091 345.284 135.091C344.258 135.584 344.258 138.545 344.258 138.545ZM344.75 147.716C344.873 149.772 344.873 150.676 343.929 149.772V149.936C342.93 148.593 342.611 146.86 343.067 145.248C344.137 145.573 344.837 146.599 344.75 147.716ZM302.463 123.494C302.463 123.864 302.217 124.605 301.765 124.728C301.313 124.851 301.026 125.427 301.313 125.756L303.407 127.483C303.758 127.776 304.312 128.476 304.872 129.184L304.873 129.185C305.492 129.968 306.12 130.761 306.486 131.02C306.819 131.255 307.153 131.219 307.517 131.18C307.916 131.136 308.353 131.089 308.868 131.39C310.506 132.628 311.899 134.162 312.973 135.913C313.96 137.414 315.117 138.794 316.422 140.026C316.494 140.098 316.615 140.258 316.77 140.462C317.234 141.076 318.003 142.092 318.68 142.37C320.974 144.188 323.018 146.304 324.756 148.661C325.409 149.619 326.341 150.351 327.425 150.759C327.425 150.759 327.794 150.224 327.096 149.402C326.398 148.579 326.275 147.222 327.096 146.893C328.171 146.725 329.265 146.725 330.34 146.893V146.77C330.047 145.663 328.261 145.613 327.041 145.579C326.721 145.57 326.439 145.562 326.234 145.536C325.114 145.352 324.08 144.819 323.278 144.015C322.359 143.025 321.534 141.951 320.815 140.807C320.173 139.74 319.767 138.549 319.624 137.312C319.624 136.185 320.213 136.043 321.506 135.729L321.595 135.708C322.91 135.388 322.716 135.03 322.441 134.521L322.416 134.474C322.186 134.046 320.979 133.881 320.002 133.748C319.76 133.715 319.532 133.684 319.337 133.652C316.737 132.542 314.26 131.164 311.947 129.539C310.592 128.552 305.953 124.111 305.953 124.111C304.487 122.77 302.876 121.597 301.149 120.616C299.917 120.246 299.466 121.15 299.876 121.233C300.76 121.734 301.598 122.312 302.381 122.96C302.381 122.96 302.504 123.289 302.463 123.659V123.494ZM350.991 49.8021C351.027 50.2122 350.769 50.5908 350.375 50.7068V50.8713C350.123 50.5737 349.991 50.1923 350.005 49.8021C350.057 49.476 350.184 49.1664 350.375 48.8974C350.73 49.0629 350.967 49.4102 350.991 49.8021ZM361.747 32.8595C360.803 33.1063 359.736 34.1755 360.228 34.5867C360.721 34.9979 362.692 32.7773 361.747 33.024V32.8595ZM212.879 174.733C214.15 172.452 215.168 170.039 215.917 167.537C216.262 165.91 216.496 164.261 216.615 162.602C216.738 161.286 217.067 159.353 217.806 159.436C218.545 159.518 218.997 160.053 218.997 161.533C219.122 163.519 219.122 165.51 218.997 167.496C218.587 167.981 218.305 168.56 218.175 169.182C218.153 169.47 218.215 169.758 218.276 170.045C218.328 170.292 218.381 170.539 218.381 170.786C216.969 173.303 215.183 175.591 213.085 177.571C213.085 177.571 212.428 177.447 212.263 177.982C212.206 178.168 212.179 178.462 212.149 178.788C212.092 179.402 212.025 180.127 211.73 180.449C210.752 181.5 209.501 182.255 208.117 182.629C206.475 182.999 205.653 182.629 205.653 182.259C205.653 182.074 206.508 181.517 207.449 180.904C208.387 180.293 209.411 179.626 209.759 179.216C210.98 177.857 212.028 176.351 212.879 174.733Z" fill="black"/>
</g>
</svg>
