<svg xmlns="http://www.w3.org/2000/svg" xmlns:xlink="http://www.w3.org/1999/xlink" width="0" height="0" style="position:absolute">
  <symbol id="down-arrows" viewBox="0 0 34 40">
    <path d="M17.3,40c0.7-0.1,1.3-0.3,1.8-0.8l13.7-11.5c0.7-0.5,1.1-1.3,1.2-2.2c0.1-0.9-0.2-1.7-0.8-2.4c-0.6-0.7-1.4-1.1-2.3-1.1
			c-0.9-0.1-1.7,0.2-2.4,0.8L17,32.6L5.4,22.8C4.8,22.3,3.9,22,3.1,22s-1.7,0.5-2.3,1.1c-0.6,0.7-0.8,1.5-0.8,2.4
			c0.1,0.9,0.5,1.7,1.2,2.2l13.7,11.5C15.6,39.8,16.4,40.1,17.3,40z"/>
		<path d="M17.3,18c0.7-0.1,1.3-0.3,1.8-0.8L32.8,5.7c0.7-0.5,1.1-1.3,1.2-2.2c0.1-0.9-0.2-1.7-0.8-2.4c-0.6-0.7-1.4-1.1-2.3-1.1
			c-0.9-0.1-1.7,0.2-2.4,0.8L17,10.6L5.4,0.8C4.8,0.3,3.9,0,3.1,0C2.2,0.1,1.4,0.5,0.8,1.1C0.2,1.8-0.1,2.6,0,3.5s0.5,1.7,1.2,2.2
			l13.7,11.5C15.6,17.8,16.4,18.1,17.3,18z"/>
  </symbol>

	<symbol id="angle-left" viewBox="0 0 28 53">
    <path d="M0,27c0.1,1,0.5,2,1.2,2.8l17.9,21.3c0.8,1.1,2.1,1.8,3.4,1.9c1.3,0.1,2.7-0.3,3.7-1.2c1-0.9,1.6-2.2,1.7-3.5
	c0.1-1.4-0.4-2.7-1.3-3.7l-15.2-18l15.2-18c0.9-1,1.4-2.4,1.3-3.7c-0.1-1.4-0.7-2.6-1.7-3.5c-1-0.9-2.4-1.3-3.7-1.2
	c-1.3,0.1-2.6,0.8-3.4,1.9L1.2,23.2C0.3,24.2-0.1,25.6,0,27z"/>
  </symbol>
	
	<symbol id="angle-right" viewBox="0 0 28 53">
    <path d="M28,26c-0.1-1-0.5-2-1.2-2.8L8.9,1.9C8,0.8,6.8,0.1,5.4,0C4.1-0.1,2.8,0.3,1.7,1.2C0.7,2.1,0.1,3.4,0,4.8
	c-0.1,1.4,0.4,2.7,1.3,3.7l15.2,18l-15.2,18c-0.9,1-1.4,2.4-1.3,3.7c0.1,1.4,0.7,2.6,1.7,3.5c1,0.9,2.4,1.3,3.7,1.2
	c1.3-0.1,2.6-0.8,3.4-1.9l17.9-21.3C27.7,28.8,28.1,27.4,28,26z"/>
  </symbol>

	<symbol id="flag" viewBox="0 0 18.9 18.7">
    <path style="fill-rule:evenodd;clip-rule:evenodd;" d="M6,1.3C6.9,0.6,7.7,0,8.6,0c1.1,0,2,1,2.8,1.8c1.4-0.6,2.8-1,4.2-0.5c0.2,0.1,0.3,0.4,0.2,0.6
	c-1,2.3,1.2,5,2.8,7c0.1,0.1,0.2,0.2,0.2,0.3c0.1,0.1,0.1,0.3,0.1,0.4c-0.1,0.1-0.2,0.2-0.4,0.2c-2.2,0-4.2,0.4-6.2,1.4
	c-0.5,0.1-0.7-0.1-0.8-0.6c0-0.1,0-0.2,0-0.4c0-0.4,0-0.7-0.2-1.1C11.3,9,11.3,9,11.1,9c-1-0.1-1.8,0.3-2.7,0.9
	C8.3,9.9,8.2,10,8.1,10c-0.8,0.5-1.8,1.1-3.1,1.5l2.8,6.8L7,18.7L0.7,3.5C0.3,3.5,0,3.1,0,2.7c0-0.5,0.4-0.8,0.8-0.8
	c0.5,0,0.8,0.4,0.8,0.8c0,0.2-0.1,0.4-0.2,0.5l0.1,0.3c1.7-0.4,3-1.2,4-2C5.7,1.4,5.8,1.3,6,1.3z M2.3,5.1C3.4,6.3,3.8,7.6,3.9,9
	L2.3,5.1z"/>
  </symbol>
	
	<symbol id="boxes" viewBox="0 0 17.8 20.9">
    <path style="fill-rule:evenodd;clip-rule:evenodd;" d="M11,0l6.3,3l-6.3,3L4.7,3L11,0z M13.6,13.3l-2.2,1.1v-3.2l2.2-1.1V13.3z M6.4,13.2L0,10.1v7.7l6.4,3.1V13.2z
	 M6.8,12.6L4,11.2c0,0-0.1,0-0.1,0L0.5,9.5L3.7,8l0,0l6.3,3L6.8,12.6z M10.6,6.7L4.2,3.6v3.8l6.4,3.1V6.7z M13.6,17.8l-6.4,3.1v-7.7
	l3.5-1.7V15c0,0,0,0,0,0c0,0,0,0.1,0,0.1c0,0,0,0,0,0s0,0,0,0c0,0,0,0.1,0.1,0.1c0,0,0,0,0,0c0,0,0,0,0,0c0,0,0,0,0,0
	c0,0,0.1,0,0.1,0.1c0,0,0,0,0,0c0,0,0.1,0,0.1,0l0,0l0,0l0,0l0,0c0.1,0,0.1,0,0.2,0c0,0,0,0,0,0c0,0,0,0,0,0l2.4-1.2V17.8z
	 M14.3,9.4c0,0,0,0.1,0,0.1c0,0,0,0,0,0c0,0,0,0,0,0V13l3.5-1.7V3.6l-6.4,3.1v3.6l2.4-1.2c0,0,0,0,0,0c0,0,0,0,0,0c0,0,0.1,0,0.1,0
	c0,0,0,0,0,0c0,0,0,0,0,0c0,0,0,0,0.1,0c0,0,0.1,0,0.1,0c0,0,0.1,0,0.1,0.1C14.3,9.3,14.3,9.3,14.3,9.4C14.3,9.3,14.3,9.4,14.3,9.4
	C14.3,9.4,14.3,9.4,14.3,9.4C14.3,9.4,14.3,9.4,14.3,9.4z"/>
  </symbol>
		
	<symbol id="coins" viewBox="0 0 15.6 16.7">
    <path style="fill-rule:evenodd;clip-rule:evenodd;" d="M10.4,5.6c2.9-0.1,5.2-1.3,5.2-2.8C15.6,1.3,13.1,0,10,0C7,0,4.5,1.3,4.5,2.8c0,0.3,0.1,0.7,0.4,1
	C7.3,3.8,9.3,4.5,10.4,5.6z M5.8,12.8c3.1,0,4.6-0.8,5.3-1.5v-0.7c2.5-0.2,3.8-1,4.5-1.7v0.8c0,0.3-0.1,0.5-0.2,0.7
	c-0.4,0.6-1.5,1.6-4.2,1.8v-0.1c0,0.3-0.1,0.5-0.2,0.7c-0.5,0.6-1.8,1.7-5.1,1.7c-3.4,0-4.9-1-5.5-1.7C0.1,12.6,0,12.3,0,12.1v-0.9
	C0.8,11.8,2.5,12.8,5.8,12.8z M0,14.2v-0.8c0.8,0.7,2.5,1.7,5.8,1.7c3.1,0,4.6-0.9,5.3-1.6v0.8c0,0.3-0.1,0.5-0.2,0.7
	c-0.5,0.6-1.8,1.7-5.1,1.7c-3.4,0-4.9-1.1-5.5-1.7C0.1,14.8,0,14.5,0,14.2z M0,7.2c0-1.5,2.6-2.8,5.6-2.8c3,0,5.6,1.3,5.6,2.8
	c0,1.5-2.6,2.8-5.6,2.8C2.6,10,0,8.7,0,7.2z M11.1,8.3v0.6c-1,1-3.1,1.8-5.6,1.8S1,10,0,8.9v0.9c0,0.3,0.1,0.6,0.3,0.8
	c0.6,0.6,2.1,1.7,5.5,1.7c3.4,0,4.6-1,5.1-1.7c0.1-0.2,0.2-0.4,0.2-0.7V10c2.7-0.2,3.8-1.1,4.2-1.7c0.1-0.2,0.2-0.5,0.2-0.7V6.7
	C14.9,7.3,13.6,8.1,11.1,8.3z M11.1,6.2c0.2,0.3,0.2,0.6,0.2,1c0,0.1,0,0.3,0,0.4h0v0.3c2.5-0.2,3.6-1.1,4-1.7
	c0.1-0.2,0.2-0.4,0.2-0.7v-1C14.7,5.4,13.1,6.1,11.1,6.2z"/>
  </symbol>

	<symbol id="angle-o-right" viewBox="0 0 73 73">
    <path  style="fill-rule:evenodd;clip-rule:evenodd;" d="M36.5,73C56.7,73,73,56.7,73,36.5S56.7,0,36.5,0S0,16.3,0,36.5S16.3,73,36.5,73z M45.1,39.4
	c0.5-0.6,0.8-1.3,0.8-2c0.1-1-0.2-2-0.8-2.7L32.3,19.4c-0.6-0.8-1.5-1.3-2.4-1.3s-1.9,0.2-2.6,0.9c-0.7,0.6-1.2,1.6-1.2,2.5
	c-0.1,1,0.3,1.9,0.9,2.7L37.8,37L26.9,49.9c-0.7,0.7-1,1.7-0.9,2.7c0.1,1,0.5,1.9,1.2,2.5c0.7,0.6,1.7,0.9,2.6,0.9
	c1-0.1,1.8-0.6,2.4-1.3L45.1,39.4z"/>
  </symbol>
</svg>
